<?xml version="1.0" encoding="utf-8"?>
<!-- Generator: Adobe Illustrator 16.0.4, SVG Export Plug-In . SVG Version: 6.00 Build 0)  -->
<!DOCTYPE svg PUBLIC "-//W3C//DTD SVG 1.1//EN" "http://www.w3.org/Graphics/SVG/1.1/DTD/svg11.dtd">
<svg version="1.1" xmlns="http://www.w3.org/2000/svg" xmlns:xlink="http://www.w3.org/1999/xlink" x="0px" y="0px"
	 width="751.462px" height="534.667px" viewBox="0 0 751.462 534.667" enable-background="new 0 0 751.462 534.667"
	 xml:space="preserve">
<g id="Layer_3" display="none">
	
		<rect x="-460.976" y="0.265" display="inline" fill-rule="evenodd" clip-rule="evenodd" fill="#D9F2F4" width="1636" height="534.401"/>
</g>
<g id="Layer_2" display="none">
	<g display="inline">
		<g>
			<rect x="154.156" y="39.853" fill-rule="evenodd" clip-rule="evenodd" fill="#70CBF4" width="354.079" height="236.999"/>
			<g>
				<path fill-rule="evenodd" clip-rule="evenodd" fill="#808080" d="M139.604,253.959c0.001-68.137-0.079-136.27,0.096-204.404
					c0.027-10.301,6.396-21.052,18.286-23.293c1.82-0.341,3.685-0.63,5.529-0.63c116.587-0.029,233.18-0.079,349.774,0.072
					c9.752,0.013,18.214,3.725,22.79,13.205c1.746,3.615,2.331,7.599,2.331,11.649c-0.012,69.609,0,139.221-0.026,208.833
					c-0.002,3.87,0.116,7.805-0.509,11.596c-1.623,9.879-7.517,17.921-18.543,20.006c-1.824,0.344-3.716,0.442-5.576,0.442
					c-116.325,0.021-232.649,0.019-348.97,0.019c-7.574,0-14.058-2.623-19.375-8.062c-2.484-2.542-3.912-5.676-5.022-8.983
					C140.125,267.59,139.865,260.776,139.604,253.959z M496.062,42.195c-0.279,0.009-0.557,0.018-0.836,0.029
					c-0.537-0.018-1.073-0.055-1.607-0.055c-111.753-0.002-223.5-0.002-335.245,0.002c-0.7,0-1.403,0.075-2.206,0.119
					c0,1.13,0,1.997,0,2.868c0,74.905,0,149.812,0.004,224.719c0,0.873,0.031,1.743,0.049,2.616
					c0.091,0.125,0.185,0.251,0.277,0.376c0.804,0.019,1.607,0.054,2.412,0.054c111.573,0.002,223.152,0.002,334.73,0
					c0.805,0,1.607-0.04,2.414-0.062c0.134-0.611,0.392-1.222,0.392-1.833c0.018-75.658,0.018-151.319,0-226.974
					C496.446,43.433,496.196,42.812,496.062,42.195z M529.896,158.875c0.379-7.463-4.34-12.033-10.602-11.919
					c-6.962,0.126-12.375,2.586-12.281,11.324c0.096,8.817,4.663,11.688,11.201,11.782
					C525.175,170.162,530.43,166.123,529.896,158.875z M148.709,166.596c1.55-0.009,2.997-1.439,2.937-2.902
					c-0.061-1.398-1.51-2.728-2.972-2.724c-1.587,0.002-2.604,1.123-2.629,2.886C146.021,165.628,146.972,166.608,148.709,166.596z
					 M146.065,152.377c-0.032,2.5,0.942,3.707,2.44,3.707c1.489-0.002,3.071-1.295,3.124-2.555c0.068-1.624-1.342-3.062-2.985-3.055
					C146.923,150.482,146.123,151.398,146.065,152.377z"/>
				<path fill-rule="evenodd" clip-rule="evenodd" fill="#666666" d="M139.604,253.959c0.261,6.816,0.521,13.631,0.785,20.448
					c-1.978,0.432-2.853-0.733-2.888-2.39c-0.107-5.164-0.145-10.333,0.049-15.49C137.582,255.648,138.886,254.815,139.604,253.959z
					"/>
				<path fill-rule="evenodd" clip-rule="evenodd" fill="#666666" d="M529.896,158.875c0.533,7.248-4.722,11.287-11.682,11.187
					c-6.538-0.094-11.105-2.965-11.201-11.782c-0.094-8.738,5.319-11.198,12.281-11.324
					C525.557,146.841,530.275,151.411,529.896,158.875z"/>
				<path fill-rule="evenodd" clip-rule="evenodd" fill="#5A5A5A" d="M148.709,166.596c-1.737,0.012-2.688-0.968-2.664-2.74
					c0.024-1.763,1.042-2.884,2.629-2.886c1.462-0.003,2.911,1.326,2.972,2.724C151.707,165.157,150.259,166.587,148.709,166.596z"
					/>
				<path fill-rule="evenodd" clip-rule="evenodd" fill="#737373" d="M146.065,152.377c0.058-0.979,0.858-1.896,2.579-1.903
					c1.644-0.007,3.054,1.431,2.985,3.055c-0.053,1.26-1.635,2.553-3.124,2.555C147.007,156.084,146.033,154.877,146.065,152.377z"
					/>
				<path fill-rule="evenodd" clip-rule="evenodd" fill="#54C8E0" d="M156.514,272.512c-0.008,0.119-0.014,0.238-0.016,0.357
					c-0.093-0.125-0.187-0.251-0.277-0.376C156.317,272.499,156.416,272.506,156.514,272.512z"/>
			</g>
			<g>
				<path d="M248.758,181.754c0,0.874-0.138,1.699-0.414,2.475c-0.275,0.774-0.716,1.451-1.318,2.029
					c-0.604,0.577-1.38,1.036-2.327,1.374c-0.948,0.338-2.098,0.507-3.451,0.507c-0.708,0-1.382-0.011-2.021-0.031
					c-0.641-0.02-1.236-0.042-1.789-0.062v8.76c0,0.146-0.015,0.254-0.046,0.327s-0.079,0.133-0.142,0.181
					c-0.062,0.046-0.157,0.088-0.288,0.125c-0.13,0.036-0.345,0.055-0.648,0.055c-0.279,0-0.488-0.019-0.624-0.055
					c-0.135-0.037-0.233-0.076-0.296-0.118c-0.104-0.073-0.156-0.244-0.156-0.515V176.85c0-0.321,0.062-0.546,0.188-0.671
					c0.062-0.062,0.158-0.113,0.288-0.156c0.131-0.042,0.348-0.062,0.648-0.062h5.011c2.396,0,4.225,0.486,5.489,1.46
					C248.126,178.395,248.758,179.838,248.758,181.754z M246.322,181.784c0-1.301-0.435-2.271-1.303-2.911
					c-0.869-0.64-2.125-0.961-3.771-0.961h-3.811v8.182c0.491,0.033,1.047,0.055,1.672,0.071c0.625,0.015,1.297,0.024,2.014,0.024
					c0.865,0,1.621-0.104,2.271-0.306c0.65-0.203,1.192-0.494,1.624-0.874c0.431-0.38,0.758-0.843,0.975-1.391
					C246.214,183.073,246.322,182.461,246.322,181.784z"/>
				<path d="M261.404,196.897c0,0.137-0.071,0.248-0.211,0.337c-0.142,0.088-0.274,0.154-0.399,0.196
					c-0.136,0.052-0.268,0.09-0.398,0.115c-0.13,0.026-0.277,0.039-0.444,0.039c-0.114,0-0.206-0.022-0.273-0.07
					c-0.068-0.045-0.133-0.111-0.194-0.194c-0.062-0.114-0.12-0.231-0.173-0.351c-0.052-0.119-0.104-0.259-0.154-0.413
					c-0.054-0.167-0.096-0.304-0.125-0.408c-0.033-0.103-0.062-0.233-0.096-0.39c-0.624,0.688-1.308,1.18-2.052,1.476
					c-0.744,0.297-1.605,0.446-2.583,0.446c-0.573,0-1.125-0.077-1.655-0.229c-0.531-0.15-0.999-0.393-1.405-0.725
					c-0.406-0.333-0.729-0.763-0.969-1.288c-0.238-0.525-0.357-1.159-0.357-1.897c0-0.761,0.11-1.412,0.334-1.96
					c0.225-0.546,0.549-1.007,0.978-1.381c0.426-0.375,0.951-0.667,1.576-0.875c0.624-0.207,1.337-0.349,2.138-0.422l3.934-0.342
					v-0.485c0-0.488-0.064-0.931-0.194-1.326c-0.131-0.396-0.335-0.734-0.617-1.016c-0.279-0.281-0.638-0.5-1.069-0.656
					c-0.432-0.155-0.944-0.234-1.537-0.234c-0.792,0-1.481,0.099-2.068,0.297c-0.588,0.199-1.117,0.432-1.586,0.702
					c-0.113,0.062-0.205,0.11-0.273,0.142c-0.067,0.031-0.169,0.046-0.303,0.046c-0.116,0-0.223-0.058-0.321-0.171
					c-0.1-0.114-0.184-0.261-0.258-0.438c-0.082-0.156-0.136-0.281-0.156-0.375c-0.02-0.093-0.031-0.182-0.031-0.266
					c0-0.092,0.046-0.189,0.142-0.289c0.092-0.099,0.271-0.215,0.529-0.351c0.303-0.156,0.608-0.298,0.915-0.422
					c0.307-0.125,0.637-0.231,0.991-0.32c0.353-0.088,0.735-0.156,1.146-0.202c0.411-0.047,0.877-0.069,1.397-0.069
					c1.863,0,3.237,0.478,4.122,1.437c0.417,0.438,0.729,0.977,0.938,1.624c0.207,0.645,0.312,1.466,0.312,2.465v6.074
					c0,0.417,0.039,0.77,0.118,1.062c0.077,0.292,0.144,0.506,0.194,0.642c0.042,0.082,0.075,0.165,0.102,0.249
					C261.39,196.763,261.404,196.834,261.404,196.897z M258.873,190.186l-3.543,0.357c-1.104,0.114-1.928,0.394-2.474,0.836
					c-0.548,0.443-0.819,1.121-0.819,2.037c0,0.457,0.064,0.851,0.195,1.18c0.13,0.326,0.307,0.595,0.53,0.803
					c0.225,0.209,0.487,0.361,0.788,0.461c0.301,0.099,0.625,0.148,0.968,0.148c0.354,0,0.779-0.051,1.273-0.156
					c0.494-0.104,0.97-0.313,1.429-0.632c0.457-0.317,0.847-0.766,1.17-1.343c0.323-0.578,0.483-1.341,0.483-2.289V190.186z"/>
				<path d="M276.939,183.283c0,0.167-0.084,0.303-0.25,0.407c-0.198,0.104-0.396,0.202-0.595,0.296
					c-0.196,0.094-0.375,0.198-0.529,0.312c-0.158,0.114-0.329,0.239-0.517,0.375c-0.186,0.136-0.369,0.292-0.544,0.468
					c0.27,0.364,0.488,0.775,0.654,1.234c0.167,0.458,0.249,0.963,0.249,1.514c0,0.646-0.132,1.244-0.396,1.797
					c-0.267,0.551-0.638,1.026-1.117,1.427c-0.479,0.401-1.054,0.717-1.725,0.946c-0.672,0.228-1.412,0.342-2.225,0.342
					c-0.261,0-0.536-0.021-0.828-0.062c-0.292-0.04-0.551-0.088-0.78-0.14c-0.292,0.104-0.557,0.273-0.798,0.507
					c-0.238,0.235-0.358,0.513-0.358,0.836c0,0.177,0.037,0.338,0.109,0.483c0.073,0.146,0.198,0.279,0.374,0.398
					c0.179,0.119,0.415,0.229,0.711,0.329c0.298,0.099,0.669,0.184,1.117,0.257l2.231,0.39c0.845,0.146,1.576,0.33,2.195,0.555
					c0.619,0.224,1.13,0.497,1.537,0.819c0.406,0.323,0.707,0.701,0.906,1.133c0.198,0.432,0.295,0.934,0.295,1.507
					c0,0.687-0.15,1.295-0.451,1.827c-0.302,0.529-0.737,0.981-1.304,1.351c-0.567,0.369-1.256,0.648-2.068,0.835
					c-0.812,0.188-1.723,0.279-2.733,0.279c-1.02,0-1.917-0.103-2.692-0.312c-0.775-0.208-1.424-0.491-1.943-0.851
					c-0.519-0.358-0.913-0.781-1.179-1.265c-0.265-0.484-0.396-1.008-0.396-1.57c0-0.895,0.231-1.625,0.694-2.193
					c0.462-0.567,1.117-1.058,1.958-1.475c-0.467-0.261-0.819-0.567-1.053-0.92c-0.234-0.354-0.351-0.74-0.351-1.157
					c0-0.396,0.127-0.798,0.382-1.209c0.256-0.411,0.663-0.742,1.226-0.992c-0.354-0.187-0.68-0.407-0.976-0.663
					c-0.298-0.255-0.555-0.542-0.773-0.859c-0.219-0.317-0.388-0.67-0.507-1.062c-0.119-0.39-0.18-0.819-0.18-1.288
					c0-0.645,0.126-1.247,0.382-1.804c0.255-0.557,0.623-1.038,1.1-1.443c0.479-0.406,1.062-0.724,1.748-0.952
					c0.688-0.229,1.464-0.345,2.327-0.345c0.729,0,1.369,0.071,1.92,0.211c0.553,0.142,1.059,0.348,1.516,0.617
					c0.125-0.176,0.275-0.356,0.453-0.538c0.177-0.182,0.36-0.36,0.554-0.531c0.192-0.172,0.386-0.324,0.578-0.461
					c0.193-0.136,0.367-0.244,0.521-0.326c0.125-0.062,0.229-0.116,0.312-0.158c0.085-0.041,0.184-0.062,0.298-0.062
					c0.094,0,0.189,0.033,0.288,0.096c0.1,0.062,0.206,0.182,0.321,0.357C276.835,182.874,276.939,183.118,276.939,183.283z
					 M274.409,199.63c0-0.363-0.064-0.68-0.194-0.944c-0.131-0.266-0.314-0.486-0.555-0.664c-0.239-0.177-0.522-0.322-0.851-0.438
					c-0.327-0.114-0.689-0.202-1.086-0.265l-2.748-0.515c-0.029-0.011-0.084-0.021-0.163-0.032c-0.077-0.01-0.158-0.022-0.241-0.039
					c-0.084-0.015-0.17-0.027-0.259-0.038c-0.088-0.012-0.152-0.026-0.194-0.048c-0.271,0.125-0.538,0.273-0.805,0.446
					c-0.265,0.171-0.502,0.369-0.711,0.593c-0.207,0.225-0.375,0.478-0.5,0.765c-0.125,0.286-0.188,0.597-0.188,0.93
					c0,0.479,0.122,0.889,0.36,1.234c0.239,0.341,0.561,0.624,0.961,0.841c0.4,0.221,0.857,0.38,1.374,0.485
					c0.514,0.104,1.053,0.156,1.614,0.156c0.533,0,1.049-0.045,1.554-0.133c0.506-0.088,0.954-0.231,1.344-0.43
					c0.391-0.198,0.703-0.454,0.937-0.766C274.293,200.458,274.409,200.079,274.409,199.63z M273.395,187.889
					c0-0.437-0.075-0.841-0.227-1.21c-0.15-0.369-0.374-0.688-0.672-0.952c-0.296-0.266-0.661-0.474-1.093-0.624
					s-0.93-0.226-1.491-0.226c-0.572,0-1.079,0.071-1.521,0.217c-0.442,0.146-0.817,0.353-1.124,0.617
					c-0.307,0.266-0.542,0.584-0.704,0.953c-0.161,0.369-0.24,0.776-0.24,1.225c0,0.438,0.077,0.838,0.233,1.201
					c0.156,0.366,0.386,0.679,0.687,0.938c0.302,0.261,0.675,0.465,1.117,0.609c0.442,0.146,0.944,0.219,1.506,0.219
					c0.552,0,1.046-0.073,1.482-0.219c0.438-0.145,0.809-0.351,1.109-0.617c0.302-0.265,0.533-0.58,0.695-0.944
					C273.314,188.712,273.395,188.316,273.395,187.889z"/>
				<path d="M290.179,190.061c0,0.571-0.364,0.857-1.093,0.857h-8.76c0.043,0.729,0.181,1.387,0.416,1.975
					c0.232,0.588,0.539,1.088,0.92,1.499c0.38,0.411,0.822,0.729,1.328,0.953c0.505,0.225,1.058,0.336,1.662,0.336
					c0.55,0,1-0.029,1.349-0.086c0.35-0.057,0.706-0.144,1.069-0.259c0.272-0.092,0.54-0.208,0.805-0.342
					c0.267-0.136,0.478-0.204,0.632-0.204c0.136,0,0.25,0.05,0.346,0.148c0.092,0.1,0.182,0.231,0.265,0.397
					c0.082,0.158,0.154,0.295,0.211,0.415c0.057,0.119,0.086,0.226,0.086,0.319c0,0.114-0.036,0.221-0.11,0.319
					c-0.073,0.1-0.27,0.237-0.593,0.415c-0.457,0.229-1.023,0.432-1.693,0.608c-0.673,0.177-1.48,0.267-2.428,0.267
					c-0.957,0-1.829-0.171-2.615-0.509s-1.461-0.825-2.022-1.461c-0.562-0.634-0.996-1.401-1.303-2.301
					c-0.307-0.9-0.461-1.913-0.461-3.037c0-1.104,0.15-2.103,0.452-2.997c0.303-0.896,0.722-1.659,1.258-2.289
					s1.178-1.113,1.927-1.451c0.75-0.338,1.572-0.507,2.469-0.507c0.925,0,1.752,0.158,2.481,0.476
					c0.729,0.318,1.345,0.775,1.85,1.374c0.506,0.599,0.892,1.326,1.156,2.186C290.046,188.022,290.179,188.988,290.179,190.061z
					 M287.916,189.232c-0.032-0.687-0.139-1.304-0.321-1.85c-0.182-0.547-0.432-1.01-0.749-1.391
					c-0.318-0.38-0.696-0.67-1.139-0.874c-0.443-0.202-0.935-0.303-1.475-0.303c-1.104,0-1.981,0.387-2.632,1.162
					s-1.074,1.861-1.273,3.255H287.916z"/>
				<path d="M313.034,196.805c0,0.146-0.013,0.254-0.038,0.327s-0.066,0.136-0.118,0.188c-0.062,0.042-0.154,0.081-0.273,0.118
					c-0.119,0.036-0.325,0.055-0.615,0.055c-0.292,0-0.492-0.019-0.603-0.055c-0.108-0.037-0.194-0.076-0.257-0.118
					c-0.052-0.052-0.094-0.114-0.125-0.188s-0.048-0.182-0.048-0.327v-8.151c0-1.27-0.277-2.212-0.834-2.825
					s-1.409-0.922-2.553-0.922c-0.562,0-1.088,0.117-1.576,0.353c-0.491,0.233-0.921,0.545-1.29,0.937
					c-0.369,0.39-0.661,0.843-0.874,1.357c-0.213,0.517-0.319,1.055-0.319,1.616v7.636c0,0.146-0.014,0.254-0.039,0.327
					s-0.066,0.136-0.117,0.188c-0.062,0.042-0.156,0.081-0.281,0.118c-0.125,0.036-0.327,0.055-0.609,0.055
					c-0.291,0-0.491-0.019-0.602-0.055c-0.107-0.037-0.199-0.076-0.273-0.118c-0.051-0.052-0.09-0.114-0.115-0.188
					c-0.026-0.073-0.039-0.182-0.039-0.327v-12.569c0-0.156,0.015-0.282,0.046-0.382s0.079-0.186,0.142-0.259
					c0.052-0.052,0.138-0.092,0.258-0.125c0.119-0.029,0.257-0.072,0.413-0.125c0.167-0.029,0.301-0.054,0.405-0.07
					c0.105-0.015,0.202-0.021,0.298-0.021c0.196,0,0.327,0.029,0.39,0.092c0.051,0.053,0.086,0.108,0.101,0.165
					c0.017,0.057,0.024,0.152,0.024,0.289v1.592c0.437-0.655,1.051-1.197,1.841-1.623c0.792-0.427,1.703-0.64,2.731-0.64
					c0.854,0,1.595,0.127,2.22,0.382c0.624,0.256,1.139,0.611,1.544,1.069c0.406,0.457,0.706,1.001,0.898,1.631
					c0.193,0.63,0.288,1.324,0.288,2.085V196.805z"/>
				<path d="M329.24,190.418c0,1.104-0.16,2.104-0.483,2.998s-0.773,1.66-1.35,2.294c-0.579,0.636-1.262,1.123-2.054,1.461
					s-1.655,0.509-2.592,0.509c-0.926,0-1.785-0.171-2.577-0.509c-0.79-0.338-1.476-0.825-2.052-1.461
					c-0.579-0.634-1.028-1.399-1.351-2.294c-0.323-0.895-0.484-1.894-0.484-2.998c0-1.104,0.161-2.104,0.484-3.005
					c0.322-0.899,0.771-1.668,1.351-2.304c0.576-0.635,1.262-1.124,2.052-1.467c0.792-0.344,1.651-0.515,2.577-0.515
					c0.937,0,1.8,0.171,2.592,0.515c0.792,0.343,1.475,0.832,2.054,1.467c0.576,0.636,1.026,1.404,1.35,2.304
					C329.08,188.314,329.24,189.315,329.24,190.418z M327.103,190.418c0-0.749-0.094-1.456-0.281-2.123s-0.463-1.249-0.829-1.749
					c-0.363-0.499-0.815-0.897-1.357-1.193c-0.541-0.298-1.166-0.446-1.873-0.446s-1.33,0.148-1.866,0.446
					c-0.536,0.296-0.986,0.694-1.351,1.193c-0.363,0.5-0.639,1.082-0.826,1.749s-0.283,1.374-0.283,2.123
					c0,0.738,0.096,1.442,0.283,2.107c0.188,0.667,0.463,1.249,0.826,1.748c0.364,0.5,0.814,0.898,1.351,1.196
					c0.536,0.296,1.159,0.444,1.866,0.444s1.332-0.148,1.873-0.444c0.542-0.298,0.994-0.696,1.357-1.196
					c0.366-0.499,0.642-1.081,0.829-1.748C327.009,191.861,327.103,191.157,327.103,190.418z"/>
				<path d="M340.03,196.431c0,0.154-0.074,0.284-0.221,0.39c-0.146,0.104-0.296,0.198-0.452,0.28
					c-0.238,0.125-0.576,0.252-1.014,0.382c-0.438,0.131-0.984,0.197-1.641,0.197c-0.613,0-1.147-0.081-1.6-0.242
					c-0.454-0.162-0.805-0.362-1.055-0.604c-0.354-0.321-0.609-0.74-0.764-1.256c-0.158-0.515-0.235-1.194-0.235-2.037v-8.307
					h-2.046c-0.166,0-0.279-0.031-0.342-0.094c-0.073-0.073-0.11-0.192-0.11-0.359c0-0.083,0.011-0.197,0.031-0.342
					c0.021-0.147,0.046-0.277,0.079-0.392c0.029-0.094,0.066-0.194,0.108-0.305c0.042-0.108,0.088-0.178,0.142-0.211
					c0.051-0.029,0.101-0.054,0.146-0.07c0.048-0.015,0.129-0.021,0.242-0.021h1.749v-3.608c0-0.301,0.068-0.514,0.202-0.639
					c0.053-0.054,0.136-0.098,0.25-0.134c0.115-0.037,0.255-0.081,0.422-0.133c0.156-0.031,0.287-0.055,0.39-0.069
					c0.104-0.017,0.21-0.024,0.312-0.024c0.085,0,0.16,0.008,0.228,0.024c0.068,0.015,0.117,0.038,0.147,0.069
					c0.053,0.052,0.086,0.108,0.103,0.171c0.015,0.062,0.021,0.158,0.021,0.283v4.06h3.873c0.178,0,0.297,0.029,0.359,0.092
					s0.094,0.184,0.094,0.359c0,0.083-0.007,0.199-0.023,0.344c-0.015,0.146-0.039,0.275-0.07,0.392
					c-0.031,0.113-0.069,0.221-0.117,0.319c-0.046,0.1-0.096,0.163-0.147,0.194c-0.053,0.031-0.099,0.056-0.142,0.07
					c-0.042,0.017-0.119,0.023-0.232,0.023h-3.594v8.54c0,0.657,0.153,1.172,0.454,1.547c0.302,0.374,0.749,0.562,1.343,0.562
					c0.438,0,0.792-0.048,1.062-0.14c0.271-0.095,0.494-0.188,0.673-0.282c0.145-0.083,0.253-0.14,0.326-0.171
					c0.074-0.031,0.151-0.046,0.235-0.046c0.083,0,0.171,0.033,0.265,0.101c0.094,0.068,0.198,0.206,0.312,0.413
					c0.104,0.177,0.169,0.307,0.194,0.39C340.016,196.233,340.03,196.327,340.03,196.431z"/>
				<path d="M359.187,176.913c0,0.084-0.007,0.174-0.022,0.273s-0.065,0.254-0.148,0.461c-0.094,0.229-0.182,0.377-0.267,0.444
					c-0.082,0.068-0.176,0.104-0.278,0.104c-0.116,0-0.256-0.029-0.423-0.087c-0.167-0.057-0.333-0.111-0.5-0.163
					c-0.198-0.062-0.435-0.129-0.711-0.196c-0.275-0.068-0.58-0.102-0.913-0.102c-0.604,0-1.091,0.1-1.46,0.298
					c-0.369,0.196-0.657,0.463-0.865,0.795c-0.209,0.333-0.349,0.713-0.422,1.141c-0.074,0.427-0.11,0.869-0.11,1.326v2.234h3.905
					c0.176,0,0.296,0.029,0.357,0.092c0.062,0.062,0.094,0.184,0.094,0.359c0,0.083-0.007,0.199-0.023,0.344
					c-0.015,0.146-0.039,0.275-0.07,0.392c-0.031,0.113-0.069,0.221-0.117,0.319c-0.046,0.1-0.096,0.163-0.148,0.194
					c-0.052,0.031-0.098,0.056-0.14,0.07c-0.043,0.017-0.119,0.023-0.235,0.023h-3.622v11.57c0,0.146-0.013,0.254-0.039,0.327
					c-0.025,0.073-0.064,0.136-0.115,0.188c-0.062,0.042-0.154,0.081-0.273,0.118c-0.12,0.036-0.326,0.055-0.617,0.055
					c-0.293,0-0.493-0.019-0.602-0.055c-0.109-0.037-0.2-0.076-0.273-0.118c-0.051-0.052-0.092-0.114-0.117-0.188
					c-0.026-0.073-0.039-0.182-0.039-0.327v-11.57h-2.046c-0.165,0-0.279-0.031-0.342-0.094c-0.073-0.073-0.11-0.192-0.11-0.359
					c0-0.083,0.012-0.197,0.031-0.342c0.021-0.147,0.046-0.277,0.079-0.392c0.029-0.094,0.066-0.194,0.108-0.305
					c0.042-0.108,0.088-0.178,0.142-0.211c0.052-0.029,0.101-0.054,0.146-0.07c0.048-0.015,0.129-0.021,0.243-0.021h1.748v-2.469
					c0-0.75,0.094-1.438,0.281-2.068s0.471-1.17,0.851-1.624c0.38-0.452,0.865-0.807,1.453-1.062
					c0.588-0.256,1.282-0.382,2.085-0.382c0.582,0,1.091,0.042,1.528,0.125c0.437,0.082,0.822,0.187,1.157,0.312
					c0.353,0.136,0.582,0.252,0.687,0.351C359.135,176.723,359.187,176.821,359.187,176.913z"/>
				<path d="M370.615,190.418c0,1.104-0.159,2.104-0.482,2.998c-0.324,0.895-0.773,1.66-1.351,2.294
					c-0.578,0.636-1.262,1.123-2.054,1.461c-0.791,0.338-1.654,0.509-2.592,0.509c-0.926,0-1.785-0.171-2.577-0.509
					c-0.79-0.338-1.475-0.825-2.052-1.461c-0.578-0.634-1.028-1.399-1.35-2.294c-0.323-0.895-0.485-1.894-0.485-2.998
					c0-1.104,0.162-2.104,0.485-3.005c0.321-0.899,0.771-1.668,1.35-2.304c0.577-0.635,1.262-1.124,2.052-1.467
					c0.792-0.344,1.651-0.515,2.577-0.515c0.938,0,1.801,0.171,2.592,0.515c0.792,0.343,1.476,0.832,2.054,1.467
					c0.577,0.636,1.026,1.404,1.351,2.304C370.456,188.314,370.615,189.315,370.615,190.418z M368.478,190.418
					c0-0.749-0.094-1.456-0.281-2.123s-0.463-1.249-0.828-1.749c-0.364-0.499-0.815-0.897-1.357-1.193
					c-0.542-0.298-1.167-0.446-1.874-0.446s-1.33,0.148-1.866,0.446c-0.536,0.296-0.986,0.694-1.35,1.193
					c-0.364,0.5-0.64,1.082-0.827,1.749s-0.283,1.374-0.283,2.123c0,0.738,0.096,1.442,0.283,2.107
					c0.188,0.667,0.463,1.249,0.827,1.748c0.363,0.5,0.813,0.898,1.35,1.196c0.536,0.296,1.159,0.444,1.866,0.444
					s1.332-0.148,1.874-0.444c0.542-0.298,0.993-0.696,1.357-1.196c0.365-0.499,0.641-1.081,0.828-1.748
					C368.384,191.861,368.478,191.157,368.478,190.418z"/>
				<path d="M385.481,196.805c0,0.146-0.013,0.254-0.039,0.327c-0.025,0.073-0.065,0.133-0.117,0.181
					c-0.052,0.046-0.119,0.088-0.204,0.125c-0.082,0.036-0.27,0.055-0.562,0.055c-0.29,0-0.488-0.019-0.591-0.055
					c-0.104-0.037-0.184-0.079-0.235-0.125c-0.052-0.048-0.094-0.107-0.125-0.181s-0.048-0.182-0.048-0.327v-1.531
					c-0.562,0.803-1.239,1.403-2.037,1.804c-0.795,0.4-1.693,0.603-2.692,0.603c-0.854,0-1.593-0.125-2.217-0.375
					c-0.625-0.25-1.14-0.604-1.547-1.062c-0.404-0.459-0.704-1.003-0.896-1.633c-0.193-0.63-0.29-1.325-0.29-2.085v-8.509
					c0-0.145,0.015-0.255,0.04-0.327c0.025-0.073,0.064-0.136,0.117-0.187c0.062-0.054,0.154-0.098,0.279-0.135
					c0.125-0.036,0.335-0.053,0.625-0.053c0.283,0,0.479,0.017,0.595,0.053c0.114,0.037,0.202,0.081,0.265,0.135
					c0.052,0.051,0.092,0.113,0.117,0.187c0.026,0.072,0.039,0.183,0.039,0.327v8.15c0,1.27,0.281,2.212,0.843,2.827
					c0.562,0.613,1.411,0.92,2.546,0.92c0.562,0,1.088-0.117,1.576-0.351c0.489-0.235,0.919-0.548,1.288-0.937
					c0.369-0.392,0.661-0.844,0.874-1.359c0.213-0.515,0.321-1.055,0.321-1.617v-7.634c0-0.145,0.013-0.255,0.039-0.327
					c0.025-0.073,0.064-0.136,0.115-0.187c0.073-0.054,0.171-0.098,0.29-0.135c0.12-0.036,0.325-0.053,0.617-0.053
					c0.291,0,0.491,0.017,0.602,0.053c0.107,0.037,0.194,0.081,0.257,0.135c0.052,0.051,0.092,0.113,0.117,0.187
					c0.026,0.072,0.039,0.183,0.039,0.327V196.805z"/>
				<path d="M401.172,196.805c0,0.146-0.013,0.254-0.039,0.327c-0.025,0.073-0.065,0.136-0.117,0.188
					c-0.062,0.042-0.154,0.081-0.273,0.118c-0.12,0.036-0.325,0.055-0.615,0.055c-0.293,0-0.492-0.019-0.603-0.055
					c-0.108-0.037-0.195-0.076-0.258-0.118c-0.051-0.052-0.094-0.114-0.125-0.188s-0.048-0.182-0.048-0.327v-8.151
					c0-1.27-0.277-2.212-0.834-2.825c-0.556-0.613-1.408-0.922-2.553-0.922c-0.562,0-1.088,0.117-1.576,0.353
					c-0.49,0.233-0.92,0.545-1.289,0.937c-0.369,0.39-0.661,0.843-0.875,1.357c-0.213,0.517-0.319,1.055-0.319,1.616v7.636
					c0,0.146-0.013,0.254-0.038,0.327c-0.026,0.073-0.066,0.136-0.118,0.188c-0.062,0.042-0.156,0.081-0.281,0.118
					c-0.124,0.036-0.326,0.055-0.609,0.055c-0.29,0-0.49-0.019-0.601-0.055c-0.108-0.037-0.2-0.076-0.273-0.118
					c-0.052-0.052-0.09-0.114-0.116-0.188c-0.025-0.073-0.038-0.182-0.038-0.327v-12.569c0-0.156,0.015-0.282,0.046-0.382
					s0.079-0.186,0.142-0.259c0.051-0.052,0.137-0.092,0.257-0.125c0.119-0.029,0.257-0.072,0.413-0.125
					c0.167-0.029,0.301-0.054,0.406-0.07c0.104-0.015,0.202-0.021,0.297-0.021c0.197,0,0.327,0.029,0.39,0.092
					c0.052,0.053,0.087,0.108,0.102,0.165c0.017,0.057,0.023,0.152,0.023,0.289v1.592c0.438-0.655,1.051-1.197,1.843-1.623
					c0.791-0.427,1.702-0.64,2.731-0.64c0.854,0,1.594,0.127,2.219,0.382c0.624,0.256,1.139,0.611,1.545,1.069
					c0.405,0.457,0.705,1.001,0.897,1.631c0.193,0.63,0.289,1.324,0.289,2.085V196.805z"/>
				<path d="M416.973,196.805c0,0.146-0.015,0.254-0.041,0.327c-0.025,0.073-0.064,0.133-0.117,0.181
					c-0.052,0.046-0.121,0.088-0.209,0.125c-0.089,0.036-0.279,0.055-0.57,0.055c-0.282,0-0.478-0.019-0.586-0.055
					c-0.109-0.037-0.19-0.079-0.242-0.125c-0.052-0.048-0.092-0.107-0.117-0.181c-0.026-0.073-0.039-0.182-0.039-0.327v-1.406
					c-0.229,0.334-0.484,0.641-0.764,0.922c-0.283,0.281-0.604,0.523-0.97,0.726c-0.364,0.204-0.777,0.36-1.24,0.468
					c-0.463,0.11-0.997,0.166-1.6,0.166c-0.907,0-1.729-0.171-2.469-0.509c-0.739-0.338-1.374-0.821-1.903-1.451
					c-0.533-0.63-0.942-1.391-1.234-2.28c-0.292-0.891-0.438-1.886-0.438-2.99c0-1.093,0.133-2.086,0.398-2.982
					c0.265-0.895,0.65-1.664,1.156-2.311c0.505-0.646,1.131-1.145,1.881-1.499c0.749-0.353,1.608-0.529,2.575-0.529
					c0.97,0,1.827,0.178,2.577,0.538c0.749,0.358,1.374,0.893,1.873,1.6v-8.445c0-0.304,0.062-0.517,0.188-0.642
					c0.052-0.051,0.136-0.094,0.25-0.125s0.256-0.073,0.421-0.124c0.157-0.031,0.29-0.056,0.398-0.07
					c0.11-0.017,0.211-0.023,0.305-0.023c0.177,0,0.307,0.031,0.392,0.094c0.051,0.051,0.084,0.106,0.101,0.163
					c0.015,0.057,0.024,0.148,0.024,0.273V196.805z M415.051,190.278c0-0.625-0.08-1.253-0.242-1.889s-0.413-1.207-0.757-1.718
					s-0.778-0.926-1.304-1.249s-1.152-0.482-1.882-0.482c-0.76,0-1.406,0.145-1.943,0.437c-0.536,0.29-0.974,0.684-1.312,1.178
					s-0.586,1.065-0.742,1.71c-0.155,0.645-0.234,1.317-0.234,2.014c0,0.749,0.084,1.464,0.25,2.14
					c0.167,0.676,0.422,1.272,0.766,1.787c0.344,0.517,0.782,0.924,1.318,1.228c0.537,0.301,1.18,0.451,1.929,0.451
					c0.719,0,1.338-0.15,1.857-0.451c0.521-0.304,0.953-0.709,1.297-1.221c0.344-0.508,0.595-1.105,0.757-1.787
					S415.051,191.027,415.051,190.278z"/>
			</g>
			<g>
				<path fill="#092A5E" d="M300.123,137.977c0,0.27-0.023,0.656-0.075,1.163c-0.05,0.503-0.127,0.942-0.226,1.312
					c-0.103,0.371-0.221,0.733-0.354,1.087c-0.135,0.353-0.287,0.581-0.454,0.682c-0.169,0.101-0.329,0.176-0.481,0.228
					c-0.15,0.05-0.411,0.076-0.782,0.076h-6.211v17.982c0,0.472-0.044,0.816-0.127,1.036c-0.085,0.219-0.211,0.412-0.38,0.581
					c-0.202,0.169-0.496,0.32-0.884,0.456c-0.388,0.134-1.053,0.202-1.995,0.202s-1.591-0.068-1.945-0.202
					c-0.353-0.136-0.648-0.287-0.884-0.456c-0.168-0.169-0.295-0.362-0.377-0.581c-0.085-0.22-0.127-0.564-0.127-1.036v-17.982
					h-25.66c-0.74,0-1.212-0.101-1.414-0.303c-0.169-0.101-0.303-0.277-0.404-0.531c-0.101-0.252-0.15-0.698-0.15-1.337
					c0-0.507,0.075-1.029,0.226-1.567c0.153-0.538,0.397-1.043,0.733-1.516l26.872-41.167c0.538-0.775,1.111-1.297,1.717-1.567
					s1.245-0.404,1.919-0.404c0.506,0,0.985,0.042,1.44,0.127c0.454,0.084,0.766,0.209,0.934,0.378
					c0.338,0.336,0.507,0.994,0.507,1.969v39.908h7.17c0.54,0,0.911,0.117,1.113,0.353
					C300.024,137.067,300.123,137.438,300.123,137.977z M284.819,106.304l-19.448,30.209h19.448V106.304z"/>
				<path fill="#092A5E" d="M348.667,127.42c0,5.421-0.529,10.178-1.591,14.269c-1.06,4.092-2.533,7.518-4.42,10.279
					c-1.886,2.763-4.125,4.833-6.719,6.214c-2.592,1.381-5.421,2.07-8.486,2.07c-3.064,0-5.902-0.688-8.51-2.07
					c-2.61-1.381-4.859-3.452-6.743-6.214c-1.887-2.761-3.369-6.187-4.445-10.279c-1.078-4.091-1.616-8.848-1.616-14.269
					c0-5.389,0.538-10.162,1.616-14.322c1.076-4.159,2.559-7.636,4.445-10.432c1.884-2.794,4.132-4.916,6.743-6.363
					c2.607-1.449,5.445-2.173,8.51-2.173c3.065,0,5.895,0.724,8.486,2.173c2.594,1.447,4.833,3.569,6.719,6.363
					c1.887,2.796,3.36,6.273,4.42,10.432C348.138,117.258,348.667,122.031,348.667,127.42z M341.344,127.42
					c0-4.144-0.304-7.88-0.91-11.216c-0.605-3.332-1.489-6.187-2.652-8.562c-1.16-2.373-2.609-4.201-4.344-5.479
					c-1.734-1.28-3.729-1.921-5.986-1.921c-2.256,0-4.25,0.641-5.984,1.921c-1.736,1.279-3.19,3.106-4.37,5.479
					c-1.179,2.375-2.07,5.229-2.676,8.562c-0.605,3.336-0.91,7.072-0.91,11.216c0,4.141,0.305,7.871,0.91,11.188
					c0.606,3.317,1.498,6.129,2.676,8.435c1.18,2.307,2.634,4.083,4.37,5.329c1.734,1.247,3.729,1.87,5.984,1.87
					c2.258,0,4.252-0.623,5.986-1.87c1.734-1.246,3.184-3.022,4.344-5.329c1.163-2.306,2.047-5.118,2.652-8.435
					C341.04,135.291,341.344,131.561,341.344,127.42z"/>
				<path fill="#092A5E" d="M397.613,137.977c0,0.27-0.023,0.656-0.075,1.163c-0.05,0.503-0.126,0.942-0.226,1.312
					c-0.103,0.371-0.221,0.733-0.354,1.087c-0.134,0.353-0.286,0.581-0.454,0.682c-0.169,0.101-0.328,0.176-0.48,0.228
					c-0.151,0.05-0.412,0.076-0.783,0.076h-6.212v17.982c0,0.472-0.044,0.816-0.127,1.036c-0.085,0.219-0.211,0.412-0.38,0.581
					c-0.202,0.169-0.496,0.32-0.884,0.456c-0.388,0.134-1.053,0.202-1.995,0.202s-1.591-0.068-1.945-0.202
					c-0.353-0.136-0.648-0.287-0.883-0.456c-0.169-0.169-0.296-0.362-0.379-0.581c-0.084-0.22-0.127-0.564-0.127-1.036v-17.982
					h-25.66c-0.74,0-1.213-0.101-1.415-0.303c-0.169-0.101-0.303-0.277-0.404-0.531c-0.101-0.252-0.15-0.698-0.15-1.337
					c0-0.507,0.075-1.029,0.226-1.567c0.153-0.538,0.397-1.043,0.733-1.516l26.873-41.167c0.538-0.775,1.111-1.297,1.718-1.567
					s1.245-0.404,1.92-0.404c0.505,0,0.984,0.042,1.439,0.127c0.454,0.084,0.766,0.209,0.934,0.378
					c0.338,0.336,0.507,0.994,0.507,1.969v39.908h7.171c0.54,0,0.911,0.117,1.113,0.353
					C397.515,137.067,397.613,137.438,397.613,137.977z M382.309,106.304l-19.448,30.209h19.448V106.304z"/>
			</g>
		</g>
		<g>
			<polygon fill-rule="evenodd" clip-rule="evenodd" fill="#0E428E" points="209.004,534.554 104.203,534.547 103.682,325.128 
				207.557,324.686 			"/>
			<polygon fill-rule="evenodd" clip-rule="evenodd" fill="#0E428E" points="574.531,534.554 471.321,534.547 471.09,327.638 
				573.083,324.686 			"/>
			<path fill-rule="evenodd" clip-rule="evenodd" fill="#092A5E" d="M207.628,333.275l-44.006-0.138
				c-6.581-0.18-8.609,2.074-8.556,8.595l0.341,192.81l-51.205,0.006L104.269,325l103.288-0.314L207.628,333.275z"/>
			<path fill-rule="evenodd" clip-rule="evenodd" fill="#092A5E" d="M574.516,534.808l-52.416-0.267l0.09-191.974
				c-0.027-8.854-2.535-11.282-11.721-11.288l-39.441,0.166c0.033-6.042,1.03-7.888,3.745-7.865l99.726,0.353L574.516,534.808z"/>
			<path fill-rule="evenodd" clip-rule="evenodd" fill="#70CBF4" d="M570.736,323.933l-95.989-0.188
				c0.101-7.629,5.744-8.528,5.744-8.528l84.927,0.219C565.418,315.436,570.681,315.452,570.736,323.933z"/>
			<path fill-rule="evenodd" clip-rule="evenodd" fill="#70CBF4" d="M204.055,324.787l-96.257,0.142
				c-0.001-6.846,1.82-8.609,7.518-8.643c0,0,80.924-1.109,84.451,0.066C199.766,316.352,203.763,317.763,204.055,324.787z"/>
			<circle fill-rule="evenodd" clip-rule="evenodd" fill="#FFE100" cx="121.196" cy="343.652" r="6.583"/>
			<path fill-rule="evenodd" clip-rule="evenodd" fill="#FBFBFB" d="M480.886,471.332"/>
			<path fill-rule="evenodd" clip-rule="evenodd" fill="#6C6B6A" d="M480.886,471.332"/>
			<g>
				<path fill-rule="evenodd" clip-rule="evenodd" fill="#FFDEB7" d="M215.437,244.125c-2.846-1.129-5.692-2.256-8.537-3.384
					c-0.777-0.335-1.555-0.671-2.334-1.005c-6.612-2.335-13.221-4.67-19.832-7.006c-0.816-0.603-10.594-4.078-14.459-5.046
					c-7.55-1.89-10.217-1.089-12.686,5.411c-3.284,8.653-7.042,17.127-10.598,25.678c-1.115,0.017-2.23,0.033-3.346,0.052
					c-1.484-6.799-4.25-20.396-4.25-20.396s0.717-63.024,0.194-65.97c-7.461,9.837-16.205,22.696-24.539,31.723
					c-8.373,9.063-8.998,18.601-7.338,30c3.275,22.492,5.358,45.159,7.935,67.752c0.586,4.455,1.713,9.864,2.301,14.317
					l78.528-0.189c0.82-2.711,1.456-6.161,2.277-8.874c1.923-4.047,3.847-8.09,5.77-12.136c0.45-0.944,1.847-2.653,2.297-3.599
					c-0.799-0.086-2.257,0.088-3.056,0c-5.646-0.011-11.478-0.006-17.125-0.019c2.024-9.598,3.947-18.714,6.241-29.599
					c11.677,1.873,36.04,9.373,39.179-1.634C234.091,249.108,223.393,246.987,215.437,244.125z"/>
				<path fill-rule="evenodd" clip-rule="evenodd" fill="#FFDEB7" d="M567.621,211.803c-8.904-12.988-18.426-25.551-27.723-38.269
					c-0.47-0.094-0.94-0.186-1.41-0.275c-0.077,22.466,0.161,44.938-0.445,67.389c-0.157,5.828-2.953,11.587-4.537,17.377
					c-1.125-0.089-2.252-0.177-3.377-0.263c-3.882-9.203-7.462-18.553-11.87-27.494c-1.013-2.058-5.042-4.051-7.375-3.742
					c-5.186,0.682-10.177,2.84-15.244,4.396c-7.757,2.961-15.513,5.921-23.268,8.88c-0.628,0.326-1.257,0.652-1.885,0.977
					c-4.618,1.778-9.771,2.789-13.71,5.537c-4.408,3.072-7.721,7.724-11.508,11.688c0.007,0.726,0.015,1.451,0.021,2.175
					c7.264,8.784,16.115,10.167,26.357,5.893c4.704-1.962,9.579-3.512,13.66-4.989c1.512,10.846,2.825,20.267,4.229,30.318
					c0,0-11.7-0.279-17.753,0.042c3.062,7.663,6.257,16.218,9.318,23.879c26.308,0.006,52.615,0.013,78.921,0.021
					c3.549-30.726,7.237-61.438,10.463-92.196C570.874,219.459,569.711,214.853,567.621,211.803z"/>
			</g>
			<path fill-rule="evenodd" clip-rule="evenodd" fill="#D9B732" d="M467.251,315.81c-0.398,0.494-0.799,0.988-1.198,1.484
				C466.452,316.798,466.853,316.304,467.251,315.81z"/>
		</g>
	</g>
</g>
<g id="Layer_1">
	<g id="_x35_00">
		<g>
			<path fill-rule="evenodd" clip-rule="evenodd" fill="#0E428E" d="M594.979,269.65c0,0,0.055,263.991,0.055,264.002l-27.82,0.003
				l-0.182-259.509c-0.028-3.467,1.05-4.665,4.549-4.569L594.979,269.65z"/>
			<path fill-rule="evenodd" clip-rule="evenodd" fill="#0E428E" d="M645.023,533.511l-0.015-253.833l20.969-0.088
				c4.841-0.005,6.216,0.953,6.231,6.001L672.163,533.5L645.023,533.511z"/>
			<g>
				<path fill-rule="evenodd" clip-rule="evenodd" fill="#737373" d="M706.276,209.167c0,2.209-1.791,4-4,4h-176.75
					c-2.209,0-4-1.791-4-4v-76c0-2.209,1.791-4,4-4h176.75c2.209,0,4,1.791,4,4V209.167z"/>
			</g>
			<g>
				<path fill-rule="evenodd" clip-rule="evenodd" fill="#A5A5A5" d="M706.276,206.167c0,2.209-1.791,4-4,4h-176.75
					c-2.209,0-4-1.791-4-4v-76c0-2.209,1.791-4,4-4h176.75c2.209,0,4,1.791,4,4V206.167z"/>
				<path fill-rule="evenodd" clip-rule="evenodd" fill="#737373" d="M548.274,152.667c0,1.104-0.896,2-2,2h-9c-1.104,0-2-0.896-2-2
					v-9.5c0-1.104,0.896-2,2-2h9c1.104,0,2,0.896,2,2V152.667z"/>
				<path fill-rule="evenodd" clip-rule="evenodd" fill="#737373" d="M566.024,152.667c0,1.104-0.896,2-2,2h-9c-1.104,0-2-0.896-2-2
					v-9.5c0-1.104,0.896-2,2-2h9c1.104,0,2,0.896,2,2V152.667z"/>
				<path fill-rule="evenodd" clip-rule="evenodd" fill="#737373" d="M584.024,152.667c0,1.104-0.896,2-2,2h-9c-1.104,0-2-0.896-2-2
					v-9.5c0-1.104,0.896-2,2-2h9c1.104,0,2,0.896,2,2V152.667z"/>
				<path fill-rule="evenodd" clip-rule="evenodd" fill="#737373" d="M602.024,152.667c0,1.104-0.896,2-2,2h-9c-1.104,0-2-0.896-2-2
					v-9.5c0-1.104,0.896-2,2-2h9c1.104,0,2,0.896,2,2V152.667z"/>
				<path fill-rule="evenodd" clip-rule="evenodd" fill="#737373" d="M619.774,152.667c0,1.104-0.896,2-2,2h-9c-1.104,0-2-0.896-2-2
					v-9.5c0-1.104,0.896-2,2-2h9c1.104,0,2,0.896,2,2V152.667z"/>
				<path fill-rule="evenodd" clip-rule="evenodd" fill="#737373" d="M637.774,152.667c0,1.104-0.896,2-2,2h-9c-1.104,0-2-0.896-2-2
					v-9.5c0-1.104,0.896-2,2-2h9c1.104,0,2,0.896,2,2V152.667z"/>
				<path fill-rule="evenodd" clip-rule="evenodd" fill="#737373" d="M656.274,152.667c0,1.104-0.896,2-2,2h-9c-1.104,0-2-0.896-2-2
					v-9.5c0-1.104,0.896-2,2-2h9c1.104,0,2,0.896,2,2V152.667z"/>
				<path fill-rule="evenodd" clip-rule="evenodd" fill="#737373" d="M674.024,152.667c0,1.104-0.896,2-2,2h-9c-1.104,0-2-0.896-2-2
					v-9.5c0-1.104,0.896-2,2-2h9c1.104,0,2,0.896,2,2V152.667z"/>
				<path fill-rule="evenodd" clip-rule="evenodd" fill="#737373" d="M692.024,152.667c0,1.104-0.896,2-2,2h-9c-1.104,0-2-0.896-2-2
					v-9.5c0-1.104,0.896-2,2-2h9c1.104,0,2,0.896,2,2V152.667z"/>
				<path fill-rule="evenodd" clip-rule="evenodd" fill="#737373" d="M548.274,171.167c0,1.105-0.896,2-2,2h-9c-1.104,0-2-0.895-2-2
					v-9.5c0-1.104,0.896-2,2-2h9c1.104,0,2,0.896,2,2V171.167z"/>
				<path fill-rule="evenodd" clip-rule="evenodd" fill="#737373" d="M566.024,171.167c0,1.105-0.896,2-2,2h-9c-1.104,0-2-0.895-2-2
					v-9.5c0-1.104,0.896-2,2-2h9c1.104,0,2,0.896,2,2V171.167z"/>
				<path fill-rule="evenodd" clip-rule="evenodd" fill="#737373" d="M584.024,171.167c0,1.105-0.896,2-2,2h-9c-1.104,0-2-0.895-2-2
					v-9.5c0-1.104,0.896-2,2-2h9c1.104,0,2,0.896,2,2V171.167z"/>
				<path fill-rule="evenodd" clip-rule="evenodd" fill="#737373" d="M602.024,171.167c0,1.105-0.896,2-2,2h-9c-1.104,0-2-0.895-2-2
					v-9.5c0-1.104,0.896-2,2-2h9c1.104,0,2,0.896,2,2V171.167z"/>
				<path fill-rule="evenodd" clip-rule="evenodd" fill="#737373" d="M619.774,171.167c0,1.105-0.896,2-2,2h-9c-1.104,0-2-0.895-2-2
					v-9.5c0-1.104,0.896-2,2-2h9c1.104,0,2,0.896,2,2V171.167z"/>
				<path fill-rule="evenodd" clip-rule="evenodd" fill="#737373" d="M637.774,171.167c0,1.105-0.896,2-2,2h-9c-1.104,0-2-0.895-2-2
					v-9.5c0-1.104,0.896-2,2-2h9c1.104,0,2,0.896,2,2V171.167z"/>
				<path fill-rule="evenodd" clip-rule="evenodd" fill="#737373" d="M656.274,171.167c0,1.105-0.896,2-2,2h-9c-1.104,0-2-0.895-2-2
					v-9.5c0-1.104,0.896-2,2-2h9c1.104,0,2,0.896,2,2V171.167z"/>
				<path fill-rule="evenodd" clip-rule="evenodd" fill="#737373" d="M656.274,189.167c0,1.105-0.896,2-2,2h-9c-1.104,0-2-0.895-2-2
					v-9.5c0-1.104,0.896-2,2-2h9c1.104,0,2,0.896,2,2V189.167z"/>
				<path fill-rule="evenodd" clip-rule="evenodd" fill="#737373" d="M674.024,171.167c0,1.105-0.896,2-2,2h-9c-1.104,0-2-0.895-2-2
					v-9.5c0-1.104,0.896-2,2-2h9c1.104,0,2,0.896,2,2V171.167z"/>
				<path fill-rule="evenodd" clip-rule="evenodd" fill="#737373" d="M692.024,171.167c0,1.105-0.896,2-2,2h-9c-1.104,0-2-0.895-2-2
					v-9.5c0-1.104,0.896-2,2-2h9c1.104,0,2,0.896,2,2V171.167z"/>
				<path fill-rule="evenodd" clip-rule="evenodd" fill="#737373" d="M548.274,188.917c0,1.105-0.896,2-2,2h-9c-1.104,0-2-0.895-2-2
					v-9.5c0-1.104,0.896-2,2-2h9c1.104,0,2,0.896,2,2V188.917z"/>
				<path fill-rule="evenodd" clip-rule="evenodd" fill="#737373" d="M566.024,188.917c0,1.105-0.896,2-2,2h-9c-1.104,0-2-0.895-2-2
					v-9.5c0-1.104,0.896-2,2-2h9c1.104,0,2,0.896,2,2V188.917z"/>
				<path fill-rule="evenodd" clip-rule="evenodd" fill="#737373" d="M674.024,188.917c0,1.105-0.896,2-2,2h-9c-1.104,0-2-0.895-2-2
					v-9.5c0-1.104,0.896-2,2-2h9c1.104,0,2,0.896,2,2V188.917z"/>
				<path fill-rule="evenodd" clip-rule="evenodd" fill="#737373" d="M692.024,188.917c0,1.105-0.896,2-2,2h-9c-1.104,0-2-0.895-2-2
					v-9.5c0-1.104,0.896-2,2-2h9c1.104,0,2,0.896,2,2V188.917z"/>
				<path fill-rule="evenodd" clip-rule="evenodd" fill="#737373" d="M636.774,189.167c0,1.104-0.896,2-2,2h-61
					c-1.104,0-2-0.896-2-2v-9.5c0-1.104,0.896-2,2-2h61c1.104,0,2,0.896,2,2V189.167z"/>
				<path fill-rule="evenodd" clip-rule="evenodd" fill="#D8D8D8" d="M548.274,150.667c0,1.104-0.896,2-2,2h-9c-1.104,0-2-0.896-2-2
					v-9.5c0-1.104,0.896-2,2-2h9c1.104,0,2,0.896,2,2V150.667z"/>
				<path fill-rule="evenodd" clip-rule="evenodd" fill="#D8D8D8" d="M566.024,150.667c0,1.104-0.896,2-2,2h-9c-1.104,0-2-0.896-2-2
					v-9.5c0-1.104,0.896-2,2-2h9c1.104,0,2,0.896,2,2V150.667z"/>
				<path fill-rule="evenodd" clip-rule="evenodd" fill="#D8D8D8" d="M584.024,150.667c0,1.104-0.896,2-2,2h-9c-1.104,0-2-0.896-2-2
					v-9.5c0-1.104,0.896-2,2-2h9c1.104,0,2,0.896,2,2V150.667z"/>
				<path fill-rule="evenodd" clip-rule="evenodd" fill="#D8D8D8" d="M602.024,150.667c0,1.104-0.896,2-2,2h-9c-1.104,0-2-0.896-2-2
					v-9.5c0-1.104,0.896-2,2-2h9c1.104,0,2,0.896,2,2V150.667z"/>
				<path fill-rule="evenodd" clip-rule="evenodd" fill="#D8D8D8" d="M619.774,150.667c0,1.104-0.896,2-2,2h-9c-1.104,0-2-0.896-2-2
					v-9.5c0-1.104,0.896-2,2-2h9c1.104,0,2,0.896,2,2V150.667z"/>
				<path fill-rule="evenodd" clip-rule="evenodd" fill="#D8D8D8" d="M637.774,150.667c0,1.104-0.896,2-2,2h-9c-1.104,0-2-0.896-2-2
					v-9.5c0-1.104,0.896-2,2-2h9c1.104,0,2,0.896,2,2V150.667z"/>
				<path fill-rule="evenodd" clip-rule="evenodd" fill="#D8D8D8" d="M656.274,150.667c0,1.104-0.896,2-2,2h-9c-1.104,0-2-0.896-2-2
					v-9.5c0-1.104,0.896-2,2-2h9c1.104,0,2,0.896,2,2V150.667z"/>
				<path fill-rule="evenodd" clip-rule="evenodd" fill="#D8D8D8" d="M674.024,150.667c0,1.104-0.896,2-2,2h-9c-1.104,0-2-0.896-2-2
					v-9.5c0-1.104,0.896-2,2-2h9c1.104,0,2,0.896,2,2V150.667z"/>
				<path fill-rule="evenodd" clip-rule="evenodd" fill="#D8D8D8" d="M692.024,150.667c0,1.104-0.896,2-2,2h-9c-1.104,0-2-0.896-2-2
					v-9.5c0-1.104,0.896-2,2-2h9c1.104,0,2,0.896,2,2V150.667z"/>
				<path fill-rule="evenodd" clip-rule="evenodd" fill="#D8D8D8" d="M548.274,169.167c0,1.105-0.896,2-2,2h-9c-1.104,0-2-0.895-2-2
					v-9.5c0-1.104,0.896-2,2-2h9c1.104,0,2,0.896,2,2V169.167z"/>
				<path fill-rule="evenodd" clip-rule="evenodd" fill="#D8D8D8" d="M566.024,169.167c0,1.105-0.896,2-2,2h-9c-1.104,0-2-0.895-2-2
					v-9.5c0-1.104,0.896-2,2-2h9c1.104,0,2,0.896,2,2V169.167z"/>
				<path fill-rule="evenodd" clip-rule="evenodd" fill="#D8D8D8" d="M584.024,169.167c0,1.105-0.896,2-2,2h-9c-1.104,0-2-0.895-2-2
					v-9.5c0-1.104,0.896-2,2-2h9c1.104,0,2,0.896,2,2V169.167z"/>
				<path fill-rule="evenodd" clip-rule="evenodd" fill="#D8D8D8" d="M602.024,169.167c0,1.105-0.896,2-2,2h-9c-1.104,0-2-0.895-2-2
					v-9.5c0-1.104,0.896-2,2-2h9c1.104,0,2,0.896,2,2V169.167z"/>
				<path fill-rule="evenodd" clip-rule="evenodd" fill="#D8D8D8" d="M619.774,169.167c0,1.105-0.896,2-2,2h-9c-1.104,0-2-0.895-2-2
					v-9.5c0-1.104,0.896-2,2-2h9c1.104,0,2,0.896,2,2V169.167z"/>
				<path fill-rule="evenodd" clip-rule="evenodd" fill="#D8D8D8" d="M637.774,169.167c0,1.105-0.896,2-2,2h-9c-1.104,0-2-0.895-2-2
					v-9.5c0-1.104,0.896-2,2-2h9c1.104,0,2,0.896,2,2V169.167z"/>
				<path fill-rule="evenodd" clip-rule="evenodd" fill="#D8D8D8" d="M656.274,169.167c0,1.105-0.896,2-2,2h-9c-1.104,0-2-0.895-2-2
					v-9.5c0-1.104,0.896-2,2-2h9c1.104,0,2,0.896,2,2V169.167z"/>
				<path fill-rule="evenodd" clip-rule="evenodd" fill="#D8D8D8" d="M656.274,187.167c0,1.105-0.896,2-2,2h-9c-1.104,0-2-0.895-2-2
					v-9.5c0-1.104,0.896-2,2-2h9c1.104,0,2,0.896,2,2V187.167z"/>
				<path fill-rule="evenodd" clip-rule="evenodd" fill="#D8D8D8" d="M674.024,169.167c0,1.105-0.896,2-2,2h-9c-1.104,0-2-0.895-2-2
					v-9.5c0-1.104,0.896-2,2-2h9c1.104,0,2,0.896,2,2V169.167z"/>
				<path fill-rule="evenodd" clip-rule="evenodd" fill="#D8D8D8" d="M692.024,169.167c0,1.105-0.896,2-2,2h-9c-1.104,0-2-0.895-2-2
					v-9.5c0-1.104,0.896-2,2-2h9c1.104,0,2,0.896,2,2V169.167z"/>
				<path fill-rule="evenodd" clip-rule="evenodd" fill="#D8D8D8" d="M548.274,186.917c0,1.105-0.896,2-2,2h-9c-1.104,0-2-0.895-2-2
					v-9.5c0-1.104,0.896-2,2-2h9c1.104,0,2,0.896,2,2V186.917z"/>
				<path fill-rule="evenodd" clip-rule="evenodd" fill="#D8D8D8" d="M566.024,186.917c0,1.105-0.896,2-2,2h-9c-1.104,0-2-0.895-2-2
					v-9.5c0-1.104,0.896-2,2-2h9c1.104,0,2,0.896,2,2V186.917z"/>
				<path fill-rule="evenodd" clip-rule="evenodd" fill="#D8D8D8" d="M674.024,186.917c0,1.105-0.896,2-2,2h-9c-1.104,0-2-0.895-2-2
					v-9.5c0-1.104,0.896-2,2-2h9c1.104,0,2,0.896,2,2V186.917z"/>
				<path fill-rule="evenodd" clip-rule="evenodd" fill="#D8D8D8" d="M692.024,186.917c0,1.105-0.896,2-2,2h-9c-1.104,0-2-0.895-2-2
					v-9.5c0-1.104,0.896-2,2-2h9c1.104,0,2,0.896,2,2V186.917z"/>
				<path fill-rule="evenodd" clip-rule="evenodd" fill="#D8D8D8" d="M636.774,187.167c0,1.104-0.896,2-2,2h-61
					c-1.104,0-2-0.896-2-2v-9.5c0-1.104,0.896-2,2-2h61c1.104,0,2,0.896,2,2V187.167z"/>
			</g>
			<path fill-rule="evenodd" clip-rule="evenodd" fill="#FFDEB7" d="M560.408,176.292c0,0,0.387-3.504,4.94-3.553
				c4.354-0.047,5.139,3.803,5.139,3.803l0.829,27.051l1.892-0.099l0.316-38.16c0,0,0.688-4.158,5.299-4.061
				c3.889,0.082,5.17,3.957,5.17,3.957l0.626,38.492l2.225-0.084l0.791-27.033c0,0,0.38-3.765,5.065-3.675s4.699,3.8,4.699,3.8
				l0.662,50.938h2.065l0.252-10.408c0.313-4.759,5.71-7.406,5.71-7.406s4.104-1.186,4.861-0.01
				c1.098,23.819,0.3,25.682-17.637,41.092c-0.628,0.539-1.235,1.266-1.977,1.482c-4.363,1.279-4.707,4.547-4.268,8.258
				l-34.857-0.004c-0.013-4.456,0.089-8.953-3.281-12.783c-1.524-1.733-1.827-4.936-1.891-7.49l-0.457-33.631l0.955-18.3
				c0,0,0.477-2.884,4.652-2.837s4.661,2.717,4.661,2.717l1.41,15.229l1.553,0.004L560.408,176.292z"/>
			<path fill-rule="evenodd" clip-rule="evenodd" fill="#FFDEB7" d="M642.142,206.797c0.083-7.15,0.214-14.299,0.23-21.449
				c0.009-3.914,1.013-7.348,5.541-7.287c4.478,0.061,5.473,3.418,5.409,7.388c-0.118,7.482-0.034,14.968-0.034,23.914l2.403-0.029
				l0.236-8.443c-0.022-3.524,1.604-5.938,5.179-6.056c3.902-0.127,5.558,2.482,5.678,6.139l0.755,7.002
				c0,0,1.152-8.309,6.757-8.291c5.229,0.017,5.438,5.143,7.595,8.396c2.39-0.2,5.9-5.042,10.207-1.239
				c0.596,1.008,1.191,2.018,1.788,3.027c-0.006,10.954,0.107,21.91-0.095,32.861c-0.054,2.906-0.165,6.549-1.823,8.547
				c-4.911,5.916-3.903,13.097-3.979,19.774h-35.042l0.115-4.857c-0.121-3.942-0.941-6.495-4.576-9.245
				c-6.702-5.07-12.33-11.576-18.272-17.615c-0.807-0.819-1.162-2.387-1.188-3.618c-0.117-5.815,0.059-11.638-0.082-17.452
				c-0.083-3.45,1.572-3.406,4.409-3.241c2.505,0.146,5.838,2.312,6.386,6.433l0.45,13.215l1.864,0.025c0-8.327,0-16.654,0-24.982
				C642.083,208.74,642.112,207.768,642.142,206.797z"/>
			<path fill-rule="evenodd" clip-rule="evenodd" fill="#092A5E" d="M594.979,269.65l-23.398-0.073
				c-3.499-0.096-4.577,1.103-4.549,4.569l0.182,259.509l-27.225,0.003l0.035-268.407l54.917-0.167L594.979,269.65z"/>
			<path fill-rule="evenodd" clip-rule="evenodd" fill="#092A5E" d="M700.028,533.643l-27.867-0.142l0.048-247.91
				c-0.015-4.707-1.348-5.998-6.231-6.001l-20.969,0.088c0.018-3.212,0.548-4.193,1.991-4.182l53.019,0.188L700.028,533.643z"/>
			<path fill-rule="evenodd" clip-rule="evenodd" fill="#70CBF4" d="M700.019,275.684l-28.029-0.1v-4.542l25.202,0.124
				C697.191,271.167,699.989,271.175,700.019,275.684z"/>
			<path fill-rule="evenodd" clip-rule="evenodd" fill="#70CBF4" d="M567.076,265.137c-8.363-0.016-25.176,0.075-25.176,0.075
				c-0.001-3.64,0.968-4.577,3.997-4.595l21.126,0.055L567.076,265.137z"/>
			<circle fill-rule="evenodd" clip-rule="evenodd" fill="#FFE100" cx="549.024" cy="275.167" r="3.5"/>
		</g>
		<g>
			<path fill-rule="evenodd" clip-rule="evenodd" fill="#BA0000" d="M751.462,64.646c0,8.347,0.012,17.486,0.011,25.833
				l-304.156,0.194c-5.042-0.131-5.854-0.756-5.963-1.908c0.051-8.926,0.1-17.852,0.148-26.778c-0.171-1.798,0.063-5.81-0.107-7.608
				l4.77-3.125c0.534,10.322,0.225,12.408,10.542,12.408L751.462,64.646z"/>
			<path fill-rule="evenodd" clip-rule="evenodd" fill="#EF0000" d="M751.462,64.646l-294.756-0.984
				c-10.317,0-10.008-2.087-10.542-12.408l6.713-14.469c1.164-0.042,298.669,0.023,298.669,0.023L751.462,64.646z"/>
			<path fill-rule="evenodd" clip-rule="evenodd" fill="#FFDEB7" d="M352.427,91.94c-1.47-0.256-2.949-0.467-4.407-0.778
				c-2.995-0.639-3.741-2.459-2.548-5.163c4.096-9.281,8.092-18.608,12.423-27.779c0.829-1.757,2.804-3.242,4.594-4.226
				c5.249-2.884,10.755-5.304,15.987-8.213c2.227-1.237,3.938-3.366,6.051-4.849c1.402-0.984,3.264-2.406,4.648-2.153
				c11.681,2.138,23.298,4.617,34.934,6.993c-9.322,6.002-18.645,12.005-27.967,18.007c-6.718-2.157-13.167-2.223-19.326,1.918
				c-2.025,1.362-4.515,2.016-6.722,3.133c-1.133,0.573-2.603,1.221-3.077,2.231c-2.447,5.208-4.621,10.544-6.89,15.836
				C357.561,88.579,354.993,90.26,352.427,91.94z"/>
			<path fill-rule="evenodd" clip-rule="evenodd" fill="#FFDEB7" d="M436.692,84.564c-7.841-1.087-14.087,0.637-19.083,7.726
				c-4.372,6.203-11.197,9.451-18.956,10.753c-6.338,1.064-12.52,3.049-18.78,4.584c-5.81,1.425-6.298,1.03-6.742-5.202
				c-0.047-0.66-0.255-2.469-0.294-3.129c3.571-2.313,6.864-4.524,10.438-6.839c7.499-0.423,14.319-2.774,16.761-10.981
				c11.958-7.834,24.674-16.167,36.633-24.002c0.379,1.45,0.098,4.77,0.477,6.22C436.994,70.651,436.843,77.608,436.692,84.564z"/>
			<path fill-rule="evenodd" clip-rule="evenodd" fill="#737373" d="M352.427,91.94c2.566-1.68,5.134-3.361,7.701-5.042
				c12.004-7.706,24.009-15.412,36.014-23.118c9.322-6.002,18.645-12.005,27.967-18.007c7.003-4.38,14.005-8.761,21.007-13.142
				c0.675,1.329,1.548,2.551,2.224,3.879c0,0-66.666,42.367-97.467,62.243c-1.391-0.632-2.78-1.265-4.17-1.897
				C347.943,95.218,350.185,93.579,352.427,91.94z"/>
			<path fill-rule="evenodd" clip-rule="evenodd" fill="#737373" d="M354.838,111.09c0.038-1.465,0.076-2.931,0.114-4.396
				l96.102-63.875l2.227,3.771L354.838,111.09z"/>
			<path fill-rule="evenodd" clip-rule="evenodd" fill="#737373" d="M436.692,84.564l0.001-20.898l4.809-1.68
				c-0.049,8.926-0.098,17.853-0.148,26.778C439.026,88.5,437.026,87.166,436.692,84.564z"/>
			<polygon fill-rule="evenodd" clip-rule="evenodd" fill="#737373" points="354.457,111.238 337.83,111.062 346.298,96.75 			"/>
			<path fill-rule="evenodd" clip-rule="evenodd" fill="#FFE100" d="M354.952,106.694c-0.038,1.465-0.076,2.931-0.114,4.396
				c-9.634,0.211-12.868-4.826-9.136-14.233c1.39,0.633,2.779,1.265,4.17,1.897C348.61,103.292,350.138,106.044,354.952,106.694z"/>
			<path fill-rule="evenodd" clip-rule="evenodd" fill="#AAD700" d="M453.28,46.59l-8.165-13.958c3.242-2.299,4.45-1.299,5.84,1.051
				l4.61,7.442C456.774,43.396,456.337,44.229,453.28,46.59z"/>
			<path fill-rule="evenodd" clip-rule="evenodd" fill="#A5A5A5" d="M441.502,61.986l-4.809,1.868l-0.025-6.379l4.727-3.096
				C441.524,54.417,441.502,61.986,441.502,61.986z"/>
			<path fill-rule="evenodd" clip-rule="evenodd" fill="#A5A5A5" d="M447.038,35.996l4.319,7.344l-96.405,63.354
				c-4.814-0.649-6.342-3.402-5.08-7.939C384.016,76.721,447.038,35.996,447.038,35.996z"/>
		</g>
		<g>
			<path fill-rule="evenodd" clip-rule="evenodd" fill="#FFDEB7" d="M383.111,142.688c4.61-0.347,8.864-0.644,13.537-2.691
				c4.947-2.167,11.681-0.439,17.619-0.118c8.276,0.448,16.531,1.302,24.809,1.729c6.78,0.35,13.923,7.296,13.881,14.003
				c-0.017,2.637-0.352,5.271-0.476,7.91c-0.036,0.764-0.138,1.911,0.292,2.252c5.186,4.128,2.743,9.767,3.426,16.35
				c-3.981-3.734-7.059-6.619-10.135-9.504c-0.415,0.402-0.829,0.805-1.243,1.207c3.509,3.524,6.868,7.216,10.574,10.519
				c2.855,2.544,3.908,5.347,3.809,9.162c-0.247,9.447-0.081,18.905-0.081,28.216c-6.942,1.942-11.546-0.614-13.269-6.929
				c-0.391-1.433-0.886-2.835-1.333-4.251c-0.016-0.603-0.03-1.206-0.045-1.811c0.221-4.285,0.629-8.572,0.606-12.857
				c-0.02-3.752-15.178-18.926-18.931-19.173c-8.22-0.54-16.138-1.171-19.675,9.278c-1.227,3.623-1.252,5.396,1.212,8.172
				c3.237,3.646,5.741,7.943,8.561,11.961c-0.573,1.83-1.146,3.66-1.718,5.49c-2.74,3.896-5.187,3.413-8.217,0.012
				c-4.088-4.589-8.884-8.553-12.88-13.211c-1.747-2.037-2.922-5.061-3.196-7.755c-0.504-4.927-0.144-9.942-0.144-15.57
				l-6.983-0.437L383.111,142.688z M446.87,158.594c-0.099-0.123-0.197-0.246-0.296-0.369c-0.115,0.102-0.231,0.204-0.348,0.305
				c0.168,0.16,0.336,0.32,0.503,0.48C446.776,158.872,446.823,158.733,446.87,158.594z"/>
			<path fill-rule="evenodd" clip-rule="evenodd" fill="#AAD700" d="M-0.04,167.667c-0.002-10.346-0.004-20.692-0.006-31.038
				c34.846-0.007,337.738-0.042,372.583,0.064c4.456,0.037,4.812,0.526,4.837,1.938c0,0,0.115,19.466,0.176,29.2
				c-0.044,9.368-0.088,18.737-0.131,28.106c-1.458,0.625-2.916,1.252-4.375,1.876L-0.04,167.667z"/>
			<path fill-rule="evenodd" clip-rule="evenodd" fill="#84A300" d="M-0.04,167.667c0,0,334.203,0.074,367.28-0.11
				c4.867,0.027,5.784,0.61,5.885,5.825l-0.081,24.431L0,197.917L-0.04,167.667z"/>
			<path fill-rule="evenodd" clip-rule="evenodd" fill="#A5A5A5" d="M377.55,167.83c-0.061-9.733-0.119-19.467-0.176-29.2
				c5.244,0.099,5.713,0.38,5.737,4.058l-0.007,31.073L377.55,167.83z"/>
			<path fill-rule="evenodd" clip-rule="evenodd" fill="#737373" d="M377.55,167.83c5.037,0.056,5.537,0.524,5.562,6.813
				l-0.261,19.992c-0.015,0.781-0.171,1.219-0.765,1.281l-4.672,0.019C377.462,186.567,377.506,177.198,377.55,167.83z"/>
			<path fill="#737373" d="M444.425,210.645l1.529,4.387c0.056,0.157,0.056,0.327,0.001,0.509c-0.056,0.182-0.157,0.313-0.307,0.396
				l-3.462,1.827c-0.003,0.798-0.052,1.486-0.145,2.065c0.69,0.498,1.713,1.162,3.065,1.99c0.185,0.113,0.31,0.255,0.369,0.426
				c0.059,0.172,0.054,0.344-0.021,0.516c-0.185,0.612-0.589,1.551-1.211,2.815c-0.624,1.267-1.08,1.95-1.369,2.051
				c-0.159,0.056-0.352,0.057-0.576,0.002l-3.471-1.185c-0.474,0.505-0.986,0.964-1.535,1.378c0.412,1.864,0.648,3.156,0.707,3.874
				c0.037,0.401-0.137,0.669-0.519,0.802l-4.387,1.527c-0.185,0.064-0.365,0.065-0.543,0.003c-0.178-0.065-0.303-0.181-0.375-0.348
				l-1.82-3.442c-0.718,0.014-1.396-0.022-2.033-0.112l-2.049,3.086c-0.091,0.165-0.235,0.282-0.433,0.35
				c-0.185,0.064-0.374,0.051-0.569-0.045c-2.183-0.922-3.654-1.65-4.419-2.184c-0.137-0.1-0.235-0.234-0.296-0.405
				c-0.055-0.159-0.055-0.328,0-0.511c0.103-0.346,0.284-0.9,0.551-1.665c0.265-0.765,0.459-1.352,0.581-1.764
				c-0.584-0.536-1.082-1.093-1.491-1.675l-3.803,0.727c-0.18,0.033-0.348,0-0.5-0.103c-0.155-0.102-0.262-0.237-0.32-0.409
				l-1.529-4.387c-0.055-0.157-0.055-0.328,0-0.509c0.054-0.181,0.15-0.312,0.286-0.389l3.481-1.834
				c-0.025-0.669,0.021-1.366,0.138-2.085c-0.788-0.568-1.81-1.231-3.062-1.992c-0.188-0.111-0.309-0.246-0.363-0.404
				c-0.046-0.132-0.04-0.304,0.02-0.517c0.177-0.594,0.578-1.527,1.206-2.803c0.626-1.274,1.085-1.962,1.374-2.062
				c0.172-0.06,0.366-0.054,0.583,0.02l3.463,1.162c0.474-0.505,0.987-0.964,1.536-1.377c-0.413-1.864-0.648-3.156-0.707-3.876
				c-0.037-0.4,0.137-0.667,0.52-0.8l4.387-1.529c0.183-0.062,0.365-0.063,0.542,0.001c0.177,0.063,0.303,0.178,0.376,0.345
				l1.82,3.442c0.717-0.015,1.396,0.023,2.032,0.113l2.069-3.094c0.078-0.158,0.214-0.273,0.412-0.342
				c0.171-0.06,0.359-0.053,0.562,0.024c2.246,0.977,3.723,1.717,4.43,2.223c0.131,0.073,0.227,0.202,0.29,0.388
				c0.056,0.158,0.058,0.327,0.001,0.509c-0.102,0.346-0.284,0.899-0.551,1.665c-0.264,0.765-0.458,1.354-0.58,1.765
				c0.57,0.54,1.067,1.092,1.484,1.654l3.81-0.706c0.181-0.034,0.348,0.001,0.5,0.103
				C444.26,210.337,444.366,210.474,444.425,210.645z M434.823,220.416c0.645-1.331,0.724-2.695,0.236-4.091
				c-0.487-1.397-1.396-2.418-2.728-3.061c-1.333-0.645-2.698-0.723-4.094-0.236c-1.396,0.486-2.416,1.396-3.06,2.729
				c-0.644,1.331-0.722,2.697-0.236,4.094c0.486,1.396,1.396,2.415,2.728,3.059c1.334,0.645,2.697,0.724,4.094,0.236
				C433.159,222.66,434.179,221.75,434.823,220.416z"/>
			<path fill="#A5A5A5" d="M443.74,208.678l1.529,4.387c0.055,0.156,0.056,0.327,0,0.509s-0.156,0.313-0.307,0.394l-3.462,1.828
				c-0.003,0.798-0.052,1.487-0.145,2.066c0.69,0.498,1.713,1.161,3.065,1.99c0.185,0.113,0.311,0.254,0.369,0.426
				c0.059,0.171,0.054,0.343-0.021,0.515c-0.185,0.611-0.589,1.552-1.211,2.816c-0.623,1.266-1.079,1.949-1.369,2.05
				c-0.159,0.057-0.352,0.058-0.576,0.002l-3.471-1.184c-0.474,0.506-0.986,0.965-1.535,1.377c0.412,1.865,0.648,3.155,0.707,3.875
				c0.037,0.4-0.137,0.668-0.52,0.802l-4.386,1.527c-0.185,0.064-0.365,0.065-0.542,0.002c-0.179-0.065-0.304-0.18-0.376-0.346
				l-1.819-3.444c-0.719,0.015-1.397-0.022-2.034-0.111l-2.048,3.086c-0.092,0.164-0.236,0.28-0.434,0.35
				c-0.185,0.064-0.374,0.049-0.569-0.046c-2.183-0.923-3.654-1.649-4.419-2.184c-0.137-0.098-0.235-0.234-0.296-0.405
				c-0.055-0.158-0.054-0.327,0-0.511c0.103-0.346,0.284-0.898,0.551-1.664c0.266-0.765,0.459-1.353,0.581-1.765
				c-0.584-0.536-1.082-1.092-1.49-1.673l-3.804,0.726c-0.18,0.034-0.348,0-0.5-0.103c-0.155-0.102-0.262-0.237-0.32-0.409
				l-1.529-4.388c-0.055-0.157-0.055-0.327,0-0.509c0.054-0.181,0.15-0.31,0.286-0.387l3.482-1.835
				c-0.026-0.669,0.02-1.366,0.138-2.086c-0.788-0.567-1.81-1.23-3.063-1.991c-0.188-0.112-0.309-0.246-0.363-0.405
				c-0.046-0.131-0.04-0.304,0.02-0.516c0.178-0.594,0.578-1.527,1.206-2.803c0.628-1.274,1.085-1.962,1.375-2.062
				c0.171-0.061,0.365-0.055,0.583,0.019l3.463,1.163c0.474-0.504,0.986-0.964,1.536-1.378c-0.413-1.864-0.649-3.156-0.708-3.874
				c-0.036-0.401,0.137-0.668,0.52-0.802l4.387-1.528c0.183-0.064,0.365-0.063,0.542,0.001c0.178,0.062,0.303,0.179,0.375,0.345
				l1.821,3.441c0.717-0.013,1.395,0.024,2.032,0.113l2.069-3.093c0.078-0.16,0.214-0.273,0.413-0.342
				c0.17-0.061,0.358-0.052,0.562,0.025c2.246,0.976,3.723,1.716,4.43,2.222c0.131,0.074,0.227,0.203,0.29,0.387
				c0.056,0.158,0.058,0.329,0.001,0.51c-0.102,0.346-0.284,0.9-0.55,1.665c-0.265,0.765-0.459,1.354-0.581,1.764
				c0.57,0.541,1.067,1.091,1.484,1.654l3.811-0.706c0.18-0.033,0.347,0.001,0.5,0.103
				C443.574,208.371,443.681,208.506,443.74,208.678z M434.138,218.449c0.645-1.332,0.724-2.696,0.236-4.092
				c-0.486-1.396-1.396-2.417-2.728-3.061c-1.333-0.643-2.697-0.722-4.094-0.235c-1.396,0.485-2.417,1.397-3.06,2.729
				c-0.644,1.332-0.722,2.696-0.235,4.094c0.485,1.395,1.396,2.415,2.727,3.059c1.334,0.645,2.697,0.723,4.094,0.235
				C432.474,220.692,433.494,219.782,434.138,218.449z"/>
			<circle fill-rule="evenodd" clip-rule="evenodd" fill="#FFE100" cx="364.524" cy="188.667" r="3.5"/>
		</g>
		<g>
			<path fill-rule="evenodd" clip-rule="evenodd" fill="#0E428E" d="M267.434-0.226l-0.225,179.867
				c-0.029,2.713-2.072,3.361-2.072,3.361l-23.135-0.087L241.896-0.207L267.434-0.226z"/>
			<path fill-rule="evenodd" clip-rule="evenodd" fill="#FFDEB7" d="M271.171,279.458c-0.059,3.331-0.203,6.663-0.155,9.991
				c0.058,4.034-1.272,7.124-5.739,7.119c-4.316-0.005-5.378-3.102-5.351-6.893l-0.45-6.971l-1.883-0.002l-0.236,6.88
				c0,2.084-1.573,4.656-5.667,4.75c-4.43,0.102-5.667-2.25-5.711-4.948l0.127-6.718h-1.5c-0.417,3.916-1.087,7.054-5.92,7.221
				c-4.583-0.084-5.914-3.721-5.914-7.471l-1.583,0.083c-0.083,2.5-2,3.75-5.75,3.75s-6.417-2.917-6.396-7.334
				c-0.367-6.146-0.208-12.322-0.254-18.486c0.027-5.878,0.055-11.755,0.082-17.633c0.184-0.963,0.053-2.188,0.601-2.85
				c7.207-8.703,4.007-19.524,4.549-29.254c5.97-0.175,11.977,0.157,17.949-0.019c6.017,0.149,12.078-0.222,18.095-0.071
				c-1.083,10.745,7.542,26.313,15.594,32.089c7.98,5.673,10.97,13.27,9.308,22.819c-4.489-1.383-8.978-2.766-13.865-4.271
				c0,3.878,0,7.147,0,10.417C271.125,274.258,271.148,276.859,271.171,279.458z"/>
			<path fill-rule="evenodd" clip-rule="evenodd" fill="#737373" d="M271.103,270.333c0,0,0-5.214,0-9.092
				c4.888,1.505,13.865,4.271,13.865,4.271s7.724,2.78,15.04-1.116c10.142-5.229,28.854,0.332,31.683,17.384
				c0,0-8.104-4.728-12.041-6.488c-4.039-1.806-8.57-2.359-11.5,1c-2.622,3.005-3.375,5.274-3.375,5.274L271.103,270.333z"/>
			<polygon fill-rule="evenodd" clip-rule="evenodd" fill="#CCAE00" points="217.937,183.001 242.003,182.916 241.971,210.675 
				218.087,210.699 			"/>
			<path fill-rule="evenodd" clip-rule="evenodd" fill="#FFE100" d="M241.971,210.675l0.032-27.76l23.135,0.087l0.053,27.581
				C265.19,210.583,241.837,210.678,241.971,210.675z"/>
			<path fill-rule="evenodd" clip-rule="evenodd" fill="#A5A5A5" d="M218.791,260.43c-4.896-1.51-9.877-2.797-14.658-4.611
				c-2.833-1.074-4.671-0.687-7.092,1.189c-12.851,9.963-31.793,1.611-34.266-14.717c3.684,1.184,7.263,3.344,10.442,4.648
				c7.558,3.102,8.778,3.357,11.433,0.227l2.995-6.065l31.182,11.067L218.791,260.43z"/>
			<path fill-rule="evenodd" clip-rule="evenodd" fill="#737373" d="M218.899,242.729l-0.074,9.439l-31.182-11.067
				c4.67-8.963,5.169-10.994,1.214-13.267c-4.583-2.833-15.333-7.793-15.333-7.793c10.012-5.037,25.625-3.625,30.557,12.324
				c1.538,5.207,8.896,8.31,8.896,8.31L218.899,242.729z"/>
			<path fill-rule="evenodd" clip-rule="evenodd" fill="#A5A5A5" d="M271.103,270.333l33.672,11.232c0,0-2.71,6.564-1.75,10.226
				c0.325,1.241,2.375,3.375,6.432,5.303c3.763,1.572,7.677,2.785,11.777,4.225c-8.134,7.719-26.958,4.612-31.811-11.006
				c-1.249-4.017-3.115-5.625-6.912-7.123c-3.861-1.523-7.565-2.465-11.339-3.731L271.103,270.333z"/>
			<path fill-rule="evenodd" clip-rule="evenodd" fill="#092A5E" d="M242.003,182.916l-24.066,0.086c0,0-1.725-0.71-1.897-3.786
				c0.003,0.035,0.083-179.513,0.083-179.513s8.574,0.028,25.775,0.09L242.003,182.916z"/>
		</g>
		<g>
			<path fill-rule="evenodd" clip-rule="evenodd" fill="#BA0000" d="M98.974,532.969l-27.849,0.081c0,0-0.013-354.729-0.18-401.655
				c-0.016-4.639,1.307-6.101,5.889-5.827L95.3,125.69c2.662-0.071,3.779-0.415,3.78-3.663L98.974,532.969z"/>
			<path fill-rule="evenodd" clip-rule="evenodd" fill="#EF0000" d="M99.08,122.028c-0.002,3.389-0.274,3.607-3.78,3.663
				l-18.465-0.122c-4.826-0.027-5.873,1.301-5.889,5.827c0.167,46.925,0.153,382.02,0.18,401.655H43.942
				c0,0-0.176-355.858-0.164-366.368c0-9.688,0-19.376,0-29.063c0,0-0.045-8.721,0.254-12.602c0.099-1.272,1.259-2.462,1.934-3.69
				c17.039,0,34.077,0.001,51.115,0.001C97.748,121.561,98.414,121.794,99.08,122.028z"/>
			<path fill-rule="evenodd" clip-rule="evenodd" fill="#FFDEB7" d="M115.978,79.708c1.316,1.21,2.632,2.421,4.722,4.344
				c-6.294,6.088-11.992,12.372-18.568,17.535c-2.251,1.767-6.724,1.067-10.148,0.88c-3.921-0.214-5.473,1.036-5.093,5.057
				c0.28,2.964-0.033,5.984-0.081,8.979c-12.567,0.038-25.135,0.075-37.703,0.112c-0.054-3.49-0.188-6.982-0.141-10.471
				c0.051-3.839,0.174-7.453-3.119-10.514c-1.317-1.225-1.688-3.947-1.717-5.999c-0.16-10.975-0.124-21.954-0.021-32.93
				c0.014-1.556,0.291-3.536,1.25-4.581c4.159-4.529,8.515-8.891,13.002-13.097c2.562-2.401,10.025-1.93,12.455,0.447
				c-0.329,0.329-0.661,0.655-0.993,0.981c-0.335,0.333-0.671,0.666-1.007,0.998c-0.335,0.338-0.671,0.676-1.004,1.017
				c-0.328,0.329-0.659,0.656-0.99,0.983c-0.335,0.333-0.671,0.666-1.007,0.999c-0.333,0.333-0.667,0.667-1,1.001
				c-0.333,0.333-0.667,0.666-1.001,0.999c-0.333,0.333-0.666,0.667-0.999,1.001c-0.333,0.333-0.667,0.667-1,1
				c-0.334,0.333-0.668,0.666-1.001,0.999c-0.336,0.337-0.671,0.675-1.005,1.016c-0.329,0.329-0.661,0.655-0.993,0.981
				c-0.392,0.25-0.784,0.5-1.176,0.75c0.117,0.115,0.296,0.351,0.34,0.328c0.411-0.216,0.798-0.477,1.191-0.726
				c0.328-0.329,0.657-0.656,0.986-0.984c0.338-0.338,0.676-0.677,1.012-1.016c0.333-0.333,0.667-0.666,1-1
				c0.333-0.333,0.667-0.666,1-1c0.333-0.334,0.667-0.667,1-1c0.333-0.333,0.667-0.666,1-1c0.333-0.334,0.667-0.667,1-1
				s0.667-0.667,1-1.001c0.329-0.329,0.658-0.656,0.988-0.983c0.338-0.338,0.675-0.676,1.012-1.016
				c0.332-0.334,0.666-0.668,0.999-1.002c0.328-0.33,0.656-0.658,0.985-0.986c1.927-1.812,4.151-3.399,5.722-5.48
				c3.867-5.122,9.104-3.567,14.098-3.265c0.361,0.022,0.663,1.011,0.994,1.553c-0.333,0.329-0.667,0.657-1.002,0.985
				c-0.357,0.308-0.713,0.616-1.07,0.923c-0.343,0.325-0.686,0.649-1.028,0.974c-0.336,0.331-0.672,0.662-1.008,0.993
				c-0.335,0.332-0.669,0.664-1.004,0.996c-0.334,0.333-0.668,0.665-1.002,0.998c-0.333,0.333-0.667,0.667-1,1
				c-0.334,0.333-0.667,0.666-1.001,0.999c-0.333,0.333-0.667,0.667-1,1c-0.302,0.371-0.604,0.741-0.902,1.115
				c-0.331,0.332-0.663,0.661-0.996,0.99c-0.365,0.3-0.73,0.599-1.096,0.898c-0.334,0.333-0.668,0.667-1.002,1
				c-0.333,0.333-0.667,0.667-1,1c-0.333,0.333-0.667,0.666-1,0.999c-0.333,0.334-0.666,0.667-0.999,1.001
				c-0.333,0.334-0.666,0.667-0.999,1.001c-0.304,0.369-0.607,0.738-0.909,1.109c-0.324,0.338-0.65,0.674-0.976,1.01
				c-0.398,0.146-0.796,0.292-1.195,0.438c0.092,0.115,0.248,0.34,0.265,0.33c0.353-0.207,0.689-0.44,1.028-0.67
				c0.337-0.326,0.675-0.65,1.013-0.975c0.356-0.317,0.712-0.635,1.066-0.954c0.333-0.333,0.668-0.666,1.001-0.999
				c0.333-0.334,0.667-0.667,1-1c0.333-0.334,0.667-0.667,1-1c0.333-0.333,0.667-0.666,1-1c0.333-0.333,0.667-0.667,1-1
				c0.312-0.353,0.625-0.705,0.936-1.058c0.331-0.331,0.663-0.66,0.996-0.989c0.357-0.316,0.714-0.632,1.071-0.95
				c0.333-0.333,0.667-0.667,1-1s0.667-0.666,1-1c0.333-0.334,0.667-0.667,0.999-1.001c0.332-0.334,0.666-0.667,0.998-1.001
				c0.332-0.335,0.665-0.669,0.997-1.004c0.331-0.335,0.663-0.67,0.994-1.005c0.327-0.34,0.654-0.679,0.98-1.019
				c0.318-0.347,0.637-0.693,0.954-1.041c0.329-0.333,0.66-0.665,0.99-0.997c5.859-8.322,14.361-8.657,23.364-7.992
				c4.915,0.363,9.879,0.065,14.666,0.065c2.303,7.745,0.493,10.634-7.815,13.211c-1.971-0.055-3.945-0.109-5.92-0.164
				c-7.524-1.442-12.658,1.812-18.329,6.834c-9.176,8.127-13.454,16.854-12.284,29.324c0.611,6.515,1.845,10.815,7.924,13.63
				c2.992,1.385,4.855,1.751,7.187-1.01c3.442-4.08,7.25-7.928,13.387-7.189C114.824,79.519,115.401,79.614,115.978,79.708z"/>
			<path fill-rule="evenodd" clip-rule="evenodd" fill="#70CBF4" d="M49.106,116.616c12.568-0.037,25.136-0.074,37.703-0.112
				c1.82,0.055,3.667,0.329,5.457,0.122c3.682-0.425,5.327,0.965,4.816,4.702c-17.038,0-34.077-0.001-51.115-0.001
				C46.1,119.147,45.422,116.428,49.106,116.616z"/>
			<path fill="#737373" d="M152.535,70.099c-0.105,1.373-0.601,2.486-1.483,3.338c-0.882,0.853-2.045,1.223-3.486,1.112
				c-0.749-0.057-1.445-0.26-2.088-0.608c-0.643-0.347-1.156-0.711-1.54-1.09c-0.384-0.378-0.875-0.74-1.473-1.084
				c-0.598-0.344-1.235-0.543-1.91-0.595c-2.008-0.155-3.092,0.819-3.254,2.92c-0.05,0.661,0.021,1.647,0.214,2.957
				c0.192,1.31,0.254,2.295,0.185,2.955l-0.01,0.127c-0.401-0.031-0.704-0.045-0.905-0.044c-0.625,0.002-1.522,0.032-2.691,0.087
				c-1.171,0.055-2.234,0.088-3.188,0.101c-0.957,0.011-1.854-0.016-2.693-0.081c-1.114-0.086-2.036-0.383-2.768-0.891
				c-0.732-0.507-1.061-1.245-0.986-2.211c0.049-0.627,0.254-1.216,0.618-1.768c0.363-0.552,0.747-1.004,1.15-1.356
				s0.789-0.825,1.156-1.42c0.366-0.593,0.577-1.238,0.631-1.933c0.103-1.338-0.309-2.423-1.237-3.253
				c-0.927-0.83-2.13-1.302-3.608-1.416c-1.533-0.118-2.868,0.167-4.003,0.855c-1.136,0.688-1.757,1.728-1.865,3.117
				c-0.056,0.728,0.028,1.442,0.249,2.141c0.221,0.699,0.485,1.269,0.791,1.71c0.306,0.442,0.577,0.915,0.814,1.419
				c0.236,0.503,0.341,0.942,0.312,1.315c-0.059,0.763-0.538,1.484-1.434,2.166c-0.721,0.541-1.811,0.755-3.272,0.643
				c-1.734-0.133-3.953-0.509-6.659-1.126c-0.161-0.047-0.41-0.1-0.745-0.16c-0.335-0.059-0.584-0.113-0.745-0.159l-0.353-0.079
				c-0.019-0.001-0.044-0.012-0.08-0.031c-0.037-0.003-0.054-0.013-0.053-0.03l2.004-26.032c0.035,0.02,0.192,0.062,0.472,0.126
				c0.28,0.063,0.586,0.13,0.921,0.198c0.334,0.069,0.528,0.113,0.582,0.134c2.707,0.618,4.926,0.993,6.66,1.127
				c1.46,0.112,2.55-0.102,3.271-0.644c0.897-0.681,1.375-1.403,1.434-2.166c0.029-0.372-0.076-0.812-0.312-1.316
				c-0.237-0.503-0.508-0.976-0.814-1.417c-0.306-0.441-0.569-1.012-0.791-1.71c-0.221-0.699-0.304-1.413-0.248-2.142
				c0.107-1.389,0.729-2.428,1.864-3.116c1.136-0.688,2.48-0.973,4.031-0.854c1.46,0.113,2.654,0.584,3.582,1.413
				c0.927,0.831,1.339,1.916,1.236,3.254c-0.053,0.695-0.264,1.339-0.63,1.933c-0.367,0.595-0.752,1.067-1.156,1.421
				c-0.403,0.352-0.787,0.804-1.15,1.355c-0.364,0.552-0.57,1.142-0.618,1.768c-0.075,0.966,0.254,1.704,0.986,2.211
				c0.732,0.508,1.654,0.805,2.768,0.891c1.168,0.09,2.82,0.089,4.957-0.002c2.136-0.091,3.635-0.121,4.496-0.089l-0.004,0.052
				c-0.021,0.033-0.064,0.179-0.129,0.438c-0.066,0.258-0.135,0.543-0.204,0.854c-0.07,0.309-0.115,0.489-0.138,0.539
				c-0.633,2.508-1.013,4.568-1.137,6.178c-0.104,1.356,0.139,2.372,0.729,3.048c0.743,0.841,1.525,1.293,2.346,1.356
				c0.401,0.031,0.872-0.061,1.412-0.274c0.541-0.215,1.045-0.46,1.517-0.74c0.471-0.279,1.082-0.518,1.832-0.715
				c0.749-0.198,1.517-0.267,2.301-0.207c1.497,0.116,2.621,0.705,3.375,1.769C152.323,67.432,152.644,68.675,152.535,70.099z"/>
			<path fill="#A5A5A5" d="M152.729,67.567c-0.106,1.373-0.6,2.486-1.482,3.338c-0.883,0.853-2.045,1.224-3.487,1.113
				c-0.749-0.058-1.444-0.26-2.087-0.608c-0.643-0.348-1.157-0.711-1.541-1.091c-0.384-0.378-0.875-0.74-1.472-1.084
				c-0.598-0.344-1.235-0.542-1.91-0.594c-2.008-0.155-3.092,0.819-3.254,2.92c-0.051,0.662,0.02,1.647,0.213,2.958
				c0.192,1.31,0.255,2.295,0.186,2.955l-0.01,0.127c-0.402-0.031-0.703-0.045-0.905-0.044c-0.624,0.003-1.522,0.032-2.691,0.087
				c-1.171,0.055-2.234,0.088-3.188,0.101c-0.957,0.011-1.854-0.016-2.692-0.081c-1.114-0.086-2.036-0.383-2.768-0.891
				c-0.732-0.507-1.061-1.245-0.986-2.21c0.048-0.628,0.254-1.217,0.617-1.769s0.748-1.004,1.151-1.356
				c0.404-0.353,0.789-0.825,1.156-1.419c0.366-0.594,0.578-1.238,0.631-1.933c0.104-1.339-0.309-2.424-1.236-3.253
				c-0.927-0.83-2.13-1.302-3.608-1.416c-1.534-0.119-2.869,0.166-4.004,0.854s-1.757,1.728-1.865,3.117
				c-0.056,0.728,0.027,1.442,0.248,2.141c0.222,0.7,0.485,1.27,0.79,1.71c0.307,0.442,0.578,0.914,0.814,1.418
				c0.236,0.503,0.34,0.942,0.312,1.315c-0.059,0.763-0.538,1.484-1.434,2.166c-0.721,0.542-1.811,0.755-3.271,0.643
				c-1.734-0.133-3.954-0.508-6.66-1.126c-0.162-0.047-0.411-0.101-0.745-0.16c-0.336-0.06-0.584-0.113-0.745-0.159l-0.352-0.079
				c-0.019-0.001-0.045-0.012-0.081-0.032c-0.037-0.003-0.054-0.013-0.053-0.03l2.004-26.031c0.036,0.02,0.192,0.062,0.473,0.125
				c0.279,0.064,0.585,0.13,0.921,0.198c0.334,0.069,0.528,0.114,0.581,0.134c2.707,0.618,4.926,0.994,6.66,1.127
				c1.46,0.113,2.551-0.102,3.271-0.643c0.897-0.681,1.375-1.403,1.434-2.166c0.029-0.373-0.076-0.811-0.311-1.315
				c-0.237-0.505-0.509-0.978-0.814-1.418c-0.306-0.441-0.569-1.011-0.791-1.71c-0.221-0.699-0.304-1.413-0.248-2.141
				c0.106-1.39,0.728-2.429,1.865-3.117c1.135-0.688,2.479-0.973,4.031-0.854c1.459,0.113,2.653,0.584,3.581,1.414
				c0.927,0.83,1.339,1.916,1.236,3.254c-0.053,0.695-0.264,1.339-0.63,1.933c-0.367,0.595-0.753,1.067-1.157,1.42
				c-0.402,0.353-0.787,0.805-1.149,1.356c-0.365,0.552-0.57,1.142-0.619,1.768c-0.074,0.967,0.254,1.704,0.986,2.212
				c0.732,0.508,1.654,0.805,2.768,0.891c1.168,0.089,2.819,0.088,4.956-0.002c2.137-0.091,3.635-0.12,4.496-0.089l-0.004,0.051
				c-0.021,0.032-0.064,0.179-0.13,0.438s-0.134,0.543-0.203,0.854c-0.07,0.31-0.116,0.489-0.138,0.539
				c-0.634,2.508-1.013,4.567-1.137,6.177c-0.104,1.356,0.139,2.372,0.729,3.049c0.743,0.841,1.525,1.293,2.346,1.356
				c0.401,0.03,0.872-0.061,1.412-0.275c0.54-0.213,1.045-0.46,1.516-0.74c0.472-0.279,1.083-0.518,1.832-0.715
				c0.75-0.198,1.517-0.266,2.302-0.206c1.497,0.116,2.621,0.705,3.375,1.769C152.518,64.9,152.839,66.144,152.729,67.567z"/>
		</g>
	</g>
</g>
</svg>
